ffmpeg version 8.0.1-essentials_build-www.gyan.dev Copyright (c) 2000-2025 the FFmpeg developers
  built with gcc 15.2.0 (Rev8, Built by MSYS2 project)
  configuration: --enable-gpl --enable-version3 --enable-static --disable-w32threads --disable-autodetect --enable-fontconfig --enable-iconv --enable-gnutls --enable-libxml2 --enable-gmp --enable-bzlib --enable-lzma --enable-zlib --enable-libsrt --enable-libssh --enable-libzmq --enable-avisynth --enable-sdl2 --enable-libwebp --enable-libx264 --enable-libx265 --enable-libxvid --enable-libaom --enable-libopenjpeg --enable-libvpx --enable-mediafoundation --enable-libass --enable-libfreetype --enable-libfribidi --enable-libharfbuzz --enable-libvidstab --enable-libvmaf --enable-libzimg --enable-amf --enable-cuda-llvm --enable-cuvid --enable-dxva2 --enable-d3d11va --enable-d3d12va --enable-ffnvcodec --enable-libvpl --enable-nvdec --enable-nvenc --enable-vaapi --enable-openal --enable-libgme --enable-libopenmpt --enable-libopencore-amrwb --enable-libmp3lame --enable-libtheora --enable-libvo-amrwbenc --enable-libgsm --enable-libopencore-amrnb --enable-libopus --enable-libspeex --enable-libvorbis --enable-librubberband
  libavutil      60.  8.100 / 60.  8.100
  libavcodec     62. 11.100 / 62. 11.100
  libavformat    62.  3.100 / 62.  3.100
  libavdevice    62.  1.100 / 62.  1.100
  libavfilter    11.  4.100 / 11.  4.100
  libswscale      9.  1.100 /  9.  1.100
  libswresample   6.  1.100 /  6.  1.100
[h264 @ 00000244c951d640] Missing reference picture, default is 0
Input #0, rtsp, from 'rtsp://localhost:8554/live/mystream':
  Metadata:
    title           :  
  Duration: N/A, start: 0.139042, bitrate: N/A
  Stream #0:0: Video: h264 (High), yuv420p(tv, bt709, progressive), 1280x720 [SAR 1:1 DAR 16:9], 30 fps, 30 tbr, 90k tbn, start 0.167000
  Stream #0:1: Audio: aac (LC), 48000 Hz, stereo, fltp, start 0.139042
Stream mapping:
  Stream #0:0 -> #0:0 (h264 (native) -> h264 (libx264))
  Stream #0:1 -> #0:1 (aac (native) -> aac (native))
Press [q] to stop, [?] for help
[libx264 @ 00000244c9b200c0] using SAR=1/1
[libx264 @ 00000244c9b200c0] using cpu capabilities: MMX2 SSE2Fast SSSE3 SSE4.2 AVX FMA3 BMI2 AVX2 AVX512
[libx264 @ 00000244c9b200c0] profile Constrained Baseline, level 3.1, 4:2:0, 8-bit
[libx264 @ 00000244c9b200c0] 264 - core 165 r3223 0480cb0 - H.264/MPEG-4 AVC codec - Copyleft 2003-2025 - http://www.videolan.org/x264.html - options: cabac=0 ref=1 deblock=0:0:0 analyse=0:0 me=dia subme=0 psy=1 psy_rd=1.00:0.00 mixed_ref=0 me_range=16 chroma_me=1 trellis=0 8x8dct=0 cqm=0 deadzone=21,11 fast_pskip=1 chroma_qp_offset=0 threads=11 lookahead_threads=11 sliced_threads=1 slices=11 nr=0 decimate=1 interlaced=0 bluray_compat=0 constrained_intra=0 bframes=0 weightp=0 keyint=30 keyint_min=16 scenecut=0 intra_refresh=0 rc=crf mbtree=0 crf=23.0 qcomp=0.60 qpmin=0 qpmax=69 qpstep=4 ip_ratio=1.40 aq=0
Output #0, hls, to 'C:\Users\CBEC\Desktop\Livesitter - Assignment\backend\hls\stream.m3u8':
  Metadata:
    title           :  
    encoder         : Lavf62.3.100
  Stream #0:0: Video: h264, yuv420p(tv, bt709, progressive), 1280x720 [SAR 1:1 DAR 16:9], q=2-31, 30 fps, 90k tbn
    Metadata:
      encoder         : Lavc62.11.100 libx264
    Side data:
      cpb: bitrate max/min/avg: 0/0/0 buffer size: 0 vbv_delay: N/A
  Stream #0:1: Audio: aac (LC), 44100 Hz, stereo, fltp, 128 kb/s
    Metadata:
      encoder         : Lavc62.11.100 aac
[hls @ 00000244c95de8c0] Opening 'C:\Users\CBEC\Desktop\Livesitter - Assignment\backend\hls\seg_000.ts' for writing
[hls @ 00000244c95de8c0] Opening 'C:\Users\CBEC\Desktop\Livesitter - Assignment\backend\hls\stream.m3u8.tmp' for writing
[hls @ 00000244c95de8c0] Opening 'C:\Users\CBEC\Desktop\Livesitter - Assignment\backend\hls\seg_001.ts' for writing
[hls @ 00000244c95de8c0] Opening 'C:\Users\CBEC\Desktop\Livesitter - Assignment\backend\hls\stream.m3u8.tmp' for writing
[hls @ 00000244c95de8c0] Opening 'C:\Users\CBEC\Desktop\Livesitter - Assignment\backend\hls\seg_002.ts' for writing
[hls @ 00000244c95de8c0] Opening 'C:\Users\CBEC\Desktop\Livesitter - Assignment\backend\hls\stream.m3u8.tmp' for writing
[hls @ 00000244c95de8c0] Opening 'C:\Users\CBEC\Desktop\Livesitter - Assignment\backend\hls\seg_003.ts' for writing
[hls @ 00000244c95de8c0] Opening 'C:\Users\CBEC\Desktop\Livesitter - Assignment\backend\hls\stream.m3u8.tmp' for writing
[hls @ 00000244c95de8c0] Opening 'C:\Users\CBEC\Desktop\Livesitter - Assignment\backend\hls\seg_004.ts' for writing
[hls @ 00000244c95de8c0] Opening 'C:\Users\CBEC\Desktop\Livesitter - Assignment\backend\hls\stream.m3u8.tmp' for writing
[hls @ 00000244c95de8c0] Opening 'C:\Users\CBEC\Desktop\Livesitter - Assignment\backend\hls\seg_005.ts' for writing
[hls @ 00000244c95de8c0] Opening 'C:\Users\CBEC\Desktop\Livesitter - Assignment\backend\hls\stream.m3u8.tmp' for writing
[hls @ 00000244c95de8c0] Opening 'C:\Users\CBEC\Desktop\Livesitter - Assignment\backend\hls\seg_006.ts' for writing
[hls @ 00000244c95de8c0] Opening 'C:\Users\CBEC\Desktop\Livesitter - Assignment\backend\hls\stream.m3u8.tmp' for writing
frame=  211 fps= 31 q=21.0 size=N/A time=00:00:07.26 bitrate=N/A dup=207 drop=0 speed=1.08x elapsed=0:00:06.71    frame=  236 fps= 33 q=19.0 size=N/A time=00:00:07.86 bitrate=N/A dup=207 drop=0 speed=1.09x elapsed=0:00:07.22    [hls @ 00000244c95de8c0] Opening 'C:\Users\CBEC\Desktop\Livesitter - Assignment\backend\hls\seg_007.ts' for writing
[hls @ 00000244c95de8c0] Opening 'C:\Users\CBEC\Desktop\Livesitter - Assignment\backend\hls\stream.m3u8.tmp' for writing
frame=  252 fps= 33 q=21.0 size=N/A time=00:00:08.40 bitrate=N/A dup=207 drop=0 speed=1.09x elapsed=0:00:07.73    frame=  267 fps= 32 q=21.0 size=N/A time=00:00:08.90 bitrate=N/A dup=207 drop=0 speed=1.08x elapsed=0:00:08.24    [hls @ 00000244c95de8c0] Opening 'C:\Users\CBEC\Desktop\Livesitter - Assignment\backend\hls\seg_008.ts' for writing
[hls @ 00000244c95de8c0] Opening 'C:\Users\CBEC\Desktop\Livesitter - Assignment\backend\hls\stream.m3u8.tmp' for writing
frame=  282 fps= 32 q=21.0 size=N/A time=00:00:09.40 bitrate=N/A dup=207 drop=0 speed=1.07x elapsed=0:00:08.77    frame=  298 fps= 32 q=20.0 size=N/A time=00:00:09.93 bitrate=N/A dup=207 drop=0 speed=1.07x elapsed=0:00:09.28    [hls @ 00000244c95de8c0] Opening 'C:\Users\CBEC\Desktop\Livesitter - Assignment\backend\hls\seg_009.ts' for writing
[hls @ 00000244c95de8c0] Opening 'C:\Users\CBEC\Desktop\Livesitter - Assignment\backend\hls\stream.m3u8.tmp' for writing
frame=  313 fps= 32 q=22.0 size=N/A time=00:00:10.43 bitrate=N/A dup=207 drop=0 speed=1.06x elapsed=0:00:09.80    frame=  329 fps= 32 q=19.0 size=N/A time=00:00:10.96 bitrate=N/A dup=207 drop=0 speed=1.06x elapsed=0:00:10.31    [hls @ 00000244c95de8c0] Opening 'C:\Users\CBEC\Desktop\Livesitter - Assignment\backend\hls\seg_010.ts' for writing
[hls @ 00000244c95de8c0] Opening 'C:\Users\CBEC\Desktop\Livesitter - Assignment\backend\hls\stream.m3u8.tmp' for writing
frame=  344 fps= 32 q=23.0 size=N/A time=00:00:11.46 bitrate=N/A dup=207 drop=0 speed=1.06x elapsed=0:00:10.83    frame=  360 fps= 32 q=21.0 size=N/A time=00:00:12.00 bitrate=N/A dup=207 drop=0 speed=1.06x elapsed=0:00:11.34    [hls @ 00000244c95de8c0] Opening 'C:\Users\CBEC\Desktop\Livesitter - Assignment\backend\hls\seg_011.ts' for writing
[hls @ 00000244c95de8c0] Opening 'C:\Users\CBEC\Desktop\Livesitter - Assignment\backend\hls\stream.m3u8.tmp' for writing
frame=  375 fps= 32 q=21.0 size=N/A time=00:00:12.50 bitrate=N/A dup=207 drop=0 speed=1.05x elapsed=0:00:11.86    [hls @ 00000244c95de8c0] Opening 'C:\Users\CBEC\Desktop\Livesitter - Assignment\backend\hls\seg_012.ts' for writing
frame=  391 fps= 32 q=19.0 size=N/A time=00:00:13.03 bitrate=N/A dup=207 drop=0 speed=1.05x elapsed=0:00:12.37    [hls @ 00000244c95de8c0] Opening 'C:\Users\CBEC\Desktop\Livesitter - Assignment\backend\hls\stream.m3u8.tmp' for writing
frame=  406 fps= 32 q=23.0 size=N/A time=00:00:13.53 bitrate=N/A dup=207 drop=0 speed=1.05x elapsed=0:00:12.88    [hls @ 00000244c95de8c0] Opening 'C:\Users\CBEC\Desktop\Livesitter - Assignment\backend\hls\seg_013.ts' for writing
[hls @ 00000244c95de8c0] Opening 'C:\Users\CBEC\Desktop\Livesitter - Assignment\backend\hls\stream.m3u8.tmp' for writing
frame=  422 fps= 31 q=26.0 size=N/A time=00:00:14.06 bitrate=N/A dup=207 drop=0 speed=1.05x elapsed=0:00:13.41    frame=  437 fps= 31 q=21.0 size=N/A time=00:00:14.56 bitrate=N/A dup=207 drop=0 speed=1.05x elapsed=0:00:13.93    [hls @ 00000244c95de8c0] Opening 'C:\Users\CBEC\Desktop\Livesitter - Assignment\backend\hls\seg_014.ts' for writing
[hls @ 00000244c95de8c0] Opening 'C:\Users\CBEC\Desktop\Livesitter - Assignment\backend\hls\stream.m3u8.tmp' for writing
frame=  453 fps= 31 q=25.0 size=N/A time=00:00:15.10 bitrate=N/A dup=207 drop=0 speed=1.05x elapsed=0:00:14.44    frame=  468 fps= 31 q=20.0 size=N/A time=00:00:15.60 bitrate=N/A dup=207 drop=0 speed=1.04x elapsed=0:00:14.95    [hls @ 00000244c95de8c0] Opening 'C:\Users\CBEC\Desktop\Livesitter - Assignment\backend\hls\seg_015.ts' for writing
[hls @ 00000244c95de8c0] Opening 'C:\Users\CBEC\Desktop\Livesitter - Assignment\backend\hls\stream.m3u8.tmp' for writing
frame=  483 fps= 31 q=24.0 size=N/A time=00:00:16.10 bitrate=N/A dup=207 drop=0 speed=1.04x elapsed=0:00:15.46    frame=  499 fps= 31 q=23.0 size=N/A time=00:00:16.63 bitrate=N/A dup=207 drop=0 speed=1.04x elapsed=0:00:15.99    [hls @ 00000244c95de8c0] Opening 'C:\Users\CBEC\Desktop\Livesitter - Assignment\backend\hls\seg_016.ts' for writing
[hls @ 00000244c95de8c0] Opening 'C:\Users\CBEC\Desktop\Livesitter - Assignment\backend\hls\stream.m3u8.tmp' for writing
frame=  514 fps= 31 q=23.0 size=N/A time=00:00:17.13 bitrate=N/A dup=207 drop=0 speed=1.04x elapsed=0:00:16.49    frame=  530 fps= 31 q=21.0 size=N/A time=00:00:17.66 bitrate=N/A dup=207 drop=0 speed=1.04x elapsed=0:00:17.02    [hls @ 00000244c95de8c0] Opening 'C:\Users\CBEC\Desktop\Livesitter - Assignment\backend\hls\seg_017.ts' for writing
[hls @ 00000244c95de8c0] Opening 'C:\Users\CBEC\Desktop\Livesitter - Assignment\backend\hls\stream.m3u8.tmp' for writing
frame=  546 fps= 31 q=24.0 size=N/A time=00:00:18.20 bitrate=N/A dup=207 drop=0 speed=1.04x elapsed=0:00:17.53    frame=  561 fps= 31 q=21.0 size=N/A time=00:00:18.70 bitrate=N/A dup=207 drop=0 speed=1.04x elapsed=0:00:18.04    [hls @ 00000244c95de8c0] Opening 'C:\Users\CBEC\Desktop\Livesitter - Assignment\backend\hls\seg_018.ts' for writing
[hls @ 00000244c95de8c0] Opening 'C:\Users\CBEC\Desktop\Livesitter - Assignment\backend\hls\stream.m3u8.tmp' for writing
frame=  576 fps= 31 q=20.0 size=N/A time=00:00:19.20 bitrate=N/A dup=207 drop=0 speed=1.03x elapsed=0:00:18.55    frame=  592 fps= 31 q=20.0 size=N/A time=00:00:19.73 bitrate=N/A dup=207 drop=0 speed=1.03x elapsed=0:00:19.07    [hls @ 00000244c95de8c0] Opening 'C:\Users\CBEC\Desktop\Livesitter - Assignment\backend\hls\seg_019.ts' for writing
[hls @ 00000244c95de8c0] Opening 'C:\Users\CBEC\Desktop\Livesitter - Assignment\backend\hls\stream.m3u8.tmp' for writing
frame=  608 fps= 31 q=20.0 size=N/A time=00:00:20.26 bitrate=N/A dup=207 drop=0 speed=1.03x elapsed=0:00:19.60    frame=  623 fps= 31 q=23.0 size=N/A time=00:00:20.76 bitrate=N/A dup=207 drop=0 speed=1.03x elapsed=0:00:20.11    [hls @ 00000244c95de8c0] Opening 'C:\Users\CBEC\Desktop\Livesitter - Assignment\backend\hls\seg_020.ts' for writing
[hls @ 00000244c95de8c0] Opening 'C:\Users\CBEC\Desktop\Livesitter - Assignment\backend\hls\stream.m3u8.tmp' for writing
frame=  638 fps= 31 q=21.0 size=N/A time=00:00:21.26 bitrate=N/A dup=207 drop=0 speed=1.03x elapsed=0:00:20.62    frame=  654 fps= 31 q=21.0 size=N/A time=00:00:21.80 bitrate=N/A dup=207 drop=0 speed=1.03x elapsed=0:00:21.13    [hls @ 00000244c95de8c0] Opening 'C:\Users\CBEC\Desktop\Livesitter - Assignment\backend\hls\seg_021.ts' for writing
[hls @ 00000244c95de8c0] Opening 'C:\Users\CBEC\Desktop\Livesitter - Assignment\backend\hls\stream.m3u8.tmp' for writing
frame=  669 fps= 31 q=23.0 size=N/A time=00:00:22.30 bitrate=N/A dup=207 drop=0 speed=1.03x elapsed=0:00:21.65    frame=  684 fps= 31 q=24.0 size=N/A time=00:00:22.80 bitrate=N/A dup=207 drop=0 speed=1.03x elapsed=0:00:22.16    [hls @ 00000244c95de8c0] Opening 'C:\Users\CBEC\Desktop\Livesitter - Assignment\backend\hls\seg_022.ts' for writing
[hls @ 00000244c95de8c0] Opening 'C:\Users\CBEC\Desktop\Livesitter - Assignment\backend\hls\stream.m3u8.tmp' for writing
frame=  700 fps= 31 q=24.0 size=N/A time=00:00:23.33 bitrate=N/A dup=207 drop=0 speed=1.03x elapsed=0:00:22.68    frame=  715 fps= 31 q=23.0 size=N/A time=00:00:23.83 bitrate=N/A dup=207 drop=0 speed=1.03x elapsed=0:00:23.20    [hls @ 00000244c95de8c0] Opening 'C:\Users\CBEC\Desktop\Livesitter - Assignment\backend\hls\seg_023.ts' for writing
[hls @ 00000244c95de8c0] Opening 'C:\Users\CBEC\Desktop\Livesitter - Assignment\backend\hls\stream.m3u8.tmp' for writing
frame=  731 fps= 31 q=24.0 size=N/A time=00:00:24.36 bitrate=N/A dup=207 drop=0 speed=1.03x elapsed=0:00:23.72    frame=  747 fps= 31 q=21.0 size=N/A time=00:00:24.90 bitrate=N/A dup=207 drop=0 speed=1.03x elapsed=0:00:24.24    [hls @ 00000244c95de8c0] Opening 'C:\Users\CBEC\Desktop\Livesitter - Assignment\backend\hls\seg_024.ts' for writing
[hls @ 00000244c95de8c0] Opening 'C:\Users\CBEC\Desktop\Livesitter - Assignment\backend\hls\stream.m3u8.tmp' for writing
frame=  762 fps= 31 q=21.0 size=N/A time=00:00:25.40 bitrate=N/A dup=207 drop=0 speed=1.03x elapsed=0:00:24.75    frame=  777 fps= 31 q=17.0 size=N/A time=00:00:25.90 bitrate=N/A dup=207 drop=0 speed=1.03x elapsed=0:00:25.26    [hls @ 00000244c95de8c0] Opening 'C:\Users\CBEC\Desktop\Livesitter - Assignment\backend\hls\seg_025.ts' for writing
[hls @ 00000244c95de8c0] Opening 'C:\Users\CBEC\Desktop\Livesitter - Assignment\backend\hls\stream.m3u8.tmp' for writing
frame=  793 fps= 31 q=20.0 size=N/A time=00:00:26.43 bitrate=N/A dup=207 drop=0 speed=1.03x elapsed=0:00:25.78    frame=  808 fps= 31 q=19.0 size=N/A time=00:00:26.93 bitrate=N/A dup=207 drop=0 speed=1.02x elapsed=0:00:26.30    [hls @ 00000244c95de8c0] Opening 'C:\Users\CBEC\Desktop\Livesitter - Assignment\backend\hls\seg_026.ts' for writing
[hls @ 00000244c95de8c0] Opening 'C:\Users\CBEC\Desktop\Livesitter - Assignment\backend\hls\stream.m3u8.tmp' for writing
frame=  824 fps= 31 q=19.0 size=N/A time=00:00:27.46 bitrate=N/A dup=207 drop=0 speed=1.02x elapsed=0:00:26.81    frame=  839 fps= 31 q=19.0 size=N/A time=00:00:27.96 bitrate=N/A dup=207 drop=0 speed=1.02x elapsed=0:00:27.33    [hls @ 00000244c95de8c0] Opening 'C:\Users\CBEC\Desktop\Livesitter - Assignment\backend\hls\seg_027.ts' for writing
[hls @ 00000244c95de8c0] Opening 'C:\Users\CBEC\Desktop\Livesitter - Assignment\backend\hls\stream.m3u8.tmp' for writing
frame=  855 fps= 31 q=20.0 size=N/A time=00:00:28.50 bitrate=N/A dup=207 drop=0 speed=1.02x elapsed=0:00:27.84    frame=  870 fps= 31 q=20.0 size=N/A time=00:00:29.00 bitrate=N/A dup=207 drop=0 speed=1.02x elapsed=0:00:28.35    [hls @ 00000244c95de8c0] Opening 'C:\Users\CBEC\Desktop\Livesitter - Assignment\backend\hls\seg_028.ts' for writing
[hls @ 00000244c95de8c0] Opening 'C:\Users\CBEC\Desktop\Livesitter - Assignment\backend\hls\stream.m3u8.tmp' for writing
frame=  886 fps= 31 q=21.0 size=N/A time=00:00:29.53 bitrate=N/A dup=207 drop=0 speed=1.02x elapsed=0:00:28.87    [hls @ 00000244c95de8c0] Opening 'C:\Users\CBEC\Desktop\Livesitter - Assignment\backend\hls\seg_029.ts' for writing
[hls @ 00000244c95de8c0] Opening 'C:\Users\CBEC\Desktop\Livesitter - Assignment\backend\hls\stream.m3u8.tmp' for writing
frame=  901 fps= 31 q=17.0 size=N/A time=00:00:30.03 bitrate=N/A dup=207 drop=0 speed=1.02x elapsed=0:00:29.38    frame=  916 fps= 31 q=21.0 size=N/A time=00:00:30.53 bitrate=N/A dup=207 drop=0 speed=1.02x elapsed=0:00:29.90    [hls @ 00000244c95de8c0] Opening 'C:\Users\CBEC\Desktop\Livesitter - Assignment\backend\hls\seg_030.ts' for writing
[hls @ 00000244c95de8c0] Opening 'C:\Users\CBEC\Desktop\Livesitter - Assignment\backend\hls\stream.m3u8.tmp' for writing
frame=  932 fps= 31 q=22.0 size=N/A time=00:00:31.06 bitrate=N/A dup=207 drop=0 speed=1.02x elapsed=0:00:30.42    frame=  948 fps= 31 q=20.0 size=N/A time=00:00:31.60 bitrate=N/A dup=207 drop=0 speed=1.02x elapsed=0:00:30.94    [hls @ 00000244c95de8c0] Opening 'C:\Users\CBEC\Desktop\Livesitter - Assignment\backend\hls\seg_031.ts' for writing
[hls @ 00000244c95de8c0] Opening 'C:\Users\CBEC\Desktop\Livesitter - Assignment\backend\hls\stream.m3u8.tmp' for writing
frame=  963 fps= 31 q=24.0 size=N/A time=00:00:32.10 bitrate=N/A dup=207 drop=0 speed=1.02x elapsed=0:00:31.45    frame=  978 fps= 31 q=21.0 size=N/A time=00:00:32.60 bitrate=N/A dup=207 drop=0 speed=1.02x elapsed=0:00:31.96    [hls @ 00000244c95de8c0] Opening 'C:\Users\CBEC\Desktop\Livesitter - Assignment\backend\hls\seg_032.ts' for writing
[hls @ 00000244c95de8c0] Opening 'C:\Users\CBEC\Desktop\Livesitter - Assignment\backend\hls\stream.m3u8.tmp' for writing
frame=  994 fps= 31 q=22.0 size=N/A time=00:00:33.13 bitrate=N/A dup=207 drop=0 speed=1.02x elapsed=0:00:32.47    frame= 1010 fps= 31 q=24.0 size=N/A time=00:00:33.66 bitrate=N/A dup=207 drop=0 speed=1.02x elapsed=0:00:33.00    [hls @ 00000244c95de8c0] Opening 'C:\Users\CBEC\Desktop\Livesitter - Assignment\backend\hls\seg_033.ts' for writing
[hls @ 00000244c95de8c0] Opening 'C:\Users\CBEC\Desktop\Livesitter - Assignment\backend\hls\stream.m3u8.tmp' for writing
frame= 1025 fps= 31 q=24.0 size=N/A time=00:00:34.16 bitrate=N/A dup=207 drop=0 speed=1.02x elapsed=0:00:33.51    frame= 1040 fps= 31 q=24.0 size=N/A time=00:00:34.66 bitrate=N/A dup=207 drop=0 speed=1.02x elapsed=0:00:34.02    [hls @ 00000244c95de8c0] Opening 'C:\Users\CBEC\Desktop\Livesitter - Assignment\backend\hls\seg_034.ts' for writing
[hls @ 00000244c95de8c0] Opening 'C:\Users\CBEC\Desktop\Livesitter - Assignment\backend\hls\stream.m3u8.tmp' for writing
frame= 1056 fps= 31 q=24.0 size=N/A time=00:00:35.20 bitrate=N/A dup=207 drop=0 speed=1.02x elapsed=0:00:34.54    frame= 1071 fps= 31 q=24.0 size=N/A time=00:00:35.70 bitrate=N/A dup=207 drop=0 speed=1.02x elapsed=0:00:35.05    [hls @ 00000244c95de8c0] Opening 'C:\Users\CBEC\Desktop\Livesitter - Assignment\backend\hls\seg_035.ts' for writing
[hls @ 00000244c95de8c0] Opening 'C:\Users\CBEC\Desktop\Livesitter - Assignment\backend\hls\stream.m3u8.tmp' for writing
frame= 1087 fps= 31 q=23.0 size=N/A time=00:00:36.23 bitrate=N/A dup=207 drop=0 speed=1.02x elapsed=0:00:35.58    frame= 1102 fps= 31 q=24.0 size=N/A time=00:00:36.73 bitrate=N/A dup=207 drop=0 speed=1.02x elapsed=0:00:36.10    [hls @ 00000244c95de8c0] Opening 'C:\Users\CBEC\Desktop\Livesitter - Assignment\backend\hls\seg_036.ts' for writing
[hls @ 00000244c95de8c0] Opening 'C:\Users\CBEC\Desktop\Livesitter - Assignment\backend\hls\stream.m3u8.tmp' for writing
frame= 1118 fps= 31 q=24.0 size=N/A time=00:00:37.26 bitrate=N/A dup=207 drop=0 speed=1.02x elapsed=0:00:36.61    frame= 1133 fps= 31 q=24.0 size=N/A time=00:00:37.76 bitrate=N/A dup=207 drop=0 speed=1.02x elapsed=0:00:37.12    [hls @ 00000244c95de8c0] Opening 'C:\Users\CBEC\Desktop\Livesitter - Assignment\backend\hls\seg_037.ts' for writing
[hls @ 00000244c95de8c0] Opening 'C:\Users\CBEC\Desktop\Livesitter - Assignment\backend\hls\stream.m3u8.tmp' for writing
frame= 1145 fps= 30 q=24.0 size=N/A time=00:00:38.16 bitrate=N/A dup=207 drop=0 speed=1.01x elapsed=0:00:37.64    frame= 1164 fps= 30 q=29.0 size=N/A time=00:00:38.80 bitrate=N/A dup=207 drop=0 speed=1.02x elapsed=0:00:38.16    [hls @ 00000244c95de8c0] Opening 'C:\Users\CBEC\Desktop\Livesitter - Assignment\backend\hls\seg_038.ts' for writing
[hls @ 00000244c95de8c0] Opening 'C:\Users\CBEC\Desktop\Livesitter - Assignment\backend\hls\stream.m3u8.tmp' for writing
frame= 1180 fps= 31 q=25.0 size=N/A time=00:00:39.33 bitrate=N/A dup=207 drop=0 speed=1.02x elapsed=0:00:38.67    frame= 1195 fps= 30 q=26.0 size=N/A time=00:00:39.83 bitrate=N/A dup=207 drop=0 speed=1.02x elapsed=0:00:39.19    [hls @ 00000244c95de8c0] Opening 'C:\Users\CBEC\Desktop\Livesitter - Assignment\backend\hls\seg_039.ts' for writing
[hls @ 00000244c95de8c0] Opening 'C:\Users\CBEC\Desktop\Livesitter - Assignment\backend\hls\stream.m3u8.tmp' for writing
frame= 1210 fps= 30 q=25.0 size=N/A time=00:00:40.33 bitrate=N/A dup=207 drop=0 speed=1.02x elapsed=0:00:39.70    frame= 1226 fps= 30 q=26.0 size=N/A time=00:00:40.86 bitrate=N/A dup=207 drop=0 speed=1.02x elapsed=0:00:40.21    [hls @ 00000244c95de8c0] Opening 'C:\Users\CBEC\Desktop\Livesitter - Assignment\backend\hls\seg_040.ts' for writing
[hls @ 00000244c95de8c0] Opening 'C:\Users\CBEC\Desktop\Livesitter - Assignment\backend\hls\stream.m3u8.tmp' for writing
frame= 1241 fps= 30 q=24.0 size=N/A time=00:00:41.36 bitrate=N/A dup=207 drop=0 speed=1.02x elapsed=0:00:40.73    frame= 1257 fps= 30 q=24.0 size=N/A time=00:00:41.90 bitrate=N/A dup=207 drop=0 speed=1.02x elapsed=0:00:41.24    [hls @ 00000244c95de8c0] Opening 'C:\Users\CBEC\Desktop\Livesitter - Assignment\backend\hls\seg_041.ts' for writing
[hls @ 00000244c95de8c0] Opening 'C:\Users\CBEC\Desktop\Livesitter - Assignment\backend\hls\stream.m3u8.tmp' for writing
frame= 1272 fps= 30 q=20.0 size=N/A time=00:00:42.40 bitrate=N/A dup=207 drop=0 speed=1.02x elapsed=0:00:41.76    frame= 1288 fps= 30 q=22.0 size=N/A time=00:00:42.93 bitrate=N/A dup=207 drop=0 speed=1.02x elapsed=0:00:42.29    [hls @ 00000244c95de8c0] Opening 'C:\Users\CBEC\Desktop\Livesitter - Assignment\backend\hls\seg_042.ts' for writing
[hls @ 00000244c95de8c0] Opening 'C:\Users\CBEC\Desktop\Livesitter - Assignment\backend\hls\stream.m3u8.tmp' for writing
frame= 1303 fps= 30 q=23.0 size=N/A time=00:00:43.43 bitrate=N/A dup=207 drop=0 speed=1.01x elapsed=0:00:42.80    frame= 1319 fps= 30 q=24.0 size=N/A time=00:00:43.96 bitrate=N/A dup=207 drop=0 speed=1.01x elapsed=0:00:43.31    [hls @ 00000244c95de8c0] Opening 'C:\Users\CBEC\Desktop\Livesitter - Assignment\backend\hls\seg_043.ts' for writing
[hls @ 00000244c95de8c0] Opening 'C:\Users\CBEC\Desktop\Livesitter - Assignment\backend\hls\stream.m3u8.tmp' for writing
frame= 1334 fps= 30 q=24.0 size=N/A time=00:00:44.46 bitrate=N/A dup=207 drop=0 speed=1.01x elapsed=0:00:43.83    frame= 1350 fps= 30 q=23.0 size=N/A time=00:00:45.00 bitrate=N/A dup=207 drop=0 speed=1.01x elapsed=0:00:44.35    [hls @ 00000244c95de8c0] Opening 'C:\Users\CBEC\Desktop\Livesitter - Assignment\backend\hls\seg_044.ts' for writing
[hls @ 00000244c95de8c0] Opening 'C:\Users\CBEC\Desktop\Livesitter - Assignment\backend\hls\stream.m3u8.tmp' for writing
frame= 1365 fps= 30 q=23.0 size=N/A time=00:00:45.50 bitrate=N/A dup=207 drop=0 speed=1.01x elapsed=0:00:44.86    [hls @ 00000244c95de8c0] Opening 'C:\Users\CBEC\Desktop\Livesitter - Assignment\backend\hls\seg_045.ts' for writing
frame= 1381 fps= 30 q=20.0 size=N/A time=00:00:46.03 bitrate=N/A dup=207 drop=0 speed=1.01x elapsed=0:00:45.37    [hls @ 00000244c95de8c0] Opening 'C:\Users\CBEC\Desktop\Livesitter - Assignment\backend\hls\stream.m3u8.tmp' for writing
frame= 1396 fps= 30 q=20.0 size=N/A time=00:00:46.53 bitrate=N/A dup=207 drop=0 speed=1.01x elapsed=0:00:45.89    [hls @ 00000244c95de8c0] Opening 'C:\Users\CBEC\Desktop\Livesitter - Assignment\backend\hls\seg_046.ts' for writing
[hls @ 00000244c95de8c0] Opening 'C:\Users\CBEC\Desktop\Livesitter - Assignment\backend\hls\stream.m3u8.tmp' for writing
frame= 1412 fps= 30 q=25.0 size=N/A time=00:00:47.06 bitrate=N/A dup=207 drop=0 speed=1.01x elapsed=0:00:46.40    frame= 1427 fps= 30 q=21.0 size=N/A time=00:00:47.56 bitrate=N/A dup=207 drop=0 speed=1.01x elapsed=0:00:46.91    [hls @ 00000244c95de8c0] Opening 'C:\Users\CBEC\Desktop\Livesitter - Assignment\backend\hls\seg_047.ts' for writing
[hls @ 00000244c95de8c0] Opening 'C:\Users\CBEC\Desktop\Livesitter - Assignment\backend\hls\stream.m3u8.tmp' for writing
frame= 1443 fps= 30 q=24.0 size=N/A time=00:00:48.10 bitrate=N/A dup=207 drop=0 speed=1.01x elapsed=0:00:47.44    frame= 1458 fps= 30 q=18.0 size=N/A time=00:00:48.60 bitrate=N/A dup=207 drop=0 speed=1.01x elapsed=0:00:47.95    [hls @ 00000244c95de8c0] Opening 'C:\Users\CBEC\Desktop\Livesitter - Assignment\backend\hls\seg_048.ts' for writing
[hls @ 00000244c95de8c0] Opening 'C:\Users\CBEC\Desktop\Livesitter - Assignment\backend\hls\stream.m3u8.tmp' for writing
frame= 1474 fps= 30 q=21.0 size=N/A time=00:00:49.13 bitrate=N/A dup=207 drop=0 speed=1.01x elapsed=0:00:48.47    frame= 1489 fps= 30 q=17.0 size=N/A time=00:00:49.63 bitrate=N/A dup=207 drop=0 speed=1.01x elapsed=0:00:48.98    [hls @ 00000244c95de8c0] Opening 'C:\Users\CBEC\Desktop\Livesitter - Assignment\backend\hls\seg_049.ts' for writing
[hls @ 00000244c95de8c0] Opening 'C:\Users\CBEC\Desktop\Livesitter - Assignment\backend\hls\stream.m3u8.tmp' for writing
frame= 1504 fps= 30 q=23.0 size=N/A time=00:00:50.13 bitrate=N/A dup=207 drop=0 speed=1.01x elapsed=0:00:49.50    frame= 1520 fps= 30 q=19.0 size=N/A time=00:00:50.66 bitrate=N/A dup=207 drop=0 speed=1.01x elapsed=0:00:50.01    [hls @ 00000244c95de8c0] Opening 'C:\Users\CBEC\Desktop\Livesitter - Assignment\backend\hls\seg_050.ts' for writing
[hls @ 00000244c95de8c0] Opening 'C:\Users\CBEC\Desktop\Livesitter - Assignment\backend\hls\stream.m3u8.tmp' for writing
frame= 1535 fps= 30 q=22.0 size=N/A time=00:00:51.16 bitrate=N/A dup=207 drop=0 speed=1.01x elapsed=0:00:50.52    frame= 1551 fps= 30 q=20.0 size=N/A time=00:00:51.70 bitrate=N/A dup=207 drop=0 speed=1.01x elapsed=0:00:51.05    [hls @ 00000244c95de8c0] Opening 'C:\Users\CBEC\Desktop\Livesitter - Assignment\backend\hls\seg_051.ts' for writing
[hls @ 00000244c95de8c0] Opening 'C:\Users\CBEC\Desktop\Livesitter - Assignment\backend\hls\stream.m3u8.tmp' for writing
frame= 1566 fps= 30 q=21.0 size=N/A time=00:00:52.20 bitrate=N/A dup=207 drop=0 speed=1.01x elapsed=0:00:51.56    frame= 1582 fps= 30 q=21.0 size=N/A time=00:00:52.73 bitrate=N/A dup=207 drop=0 speed=1.01x elapsed=0:00:52.07    [hls @ 00000244c95de8c0] Opening 'C:\Users\CBEC\Desktop\Livesitter - Assignment\backend\hls\seg_052.ts' for writing
[hls @ 00000244c95de8c0] Opening 'C:\Users\CBEC\Desktop\Livesitter - Assignment\backend\hls\stream.m3u8.tmp' for writing
frame= 1597 fps= 30 q=21.0 size=N/A time=00:00:53.23 bitrate=N/A dup=207 drop=0 speed=1.01x elapsed=0:00:52.58    frame= 1613 fps= 30 q=21.0 size=N/A time=00:00:53.76 bitrate=N/A dup=207 drop=0 speed=1.01x elapsed=0:00:53.11    [hls @ 00000244c95de8c0] Opening 'C:\Users\CBEC\Desktop\Livesitter - Assignment\backend\hls\seg_053.ts' for writing
[hls @ 00000244c95de8c0] Opening 'C:\Users\CBEC\Desktop\Livesitter - Assignment\backend\hls\stream.m3u8.tmp' for writing
frame= 1628 fps= 30 q=21.0 size=N/A time=00:00:54.26 bitrate=N/A dup=207 drop=0 speed=1.01x elapsed=0:00:53.63    frame= 1644 fps= 30 q=19.0 size=N/A time=00:00:54.80 bitrate=N/A dup=207 drop=0 speed=1.01x elapsed=0:00:54.15    [hls @ 00000244c95de8c0] Opening 'C:\Users\CBEC\Desktop\Livesitter - Assignment\backend\hls\seg_054.ts' for writing
[hls @ 00000244c95de8c0] Opening 'C:\Users\CBEC\Desktop\Livesitter - Assignment\backend\hls\stream.m3u8.tmp' for writing
frame= 1659 fps= 30 q=22.0 size=N/A time=00:00:55.30 bitrate=N/A dup=207 drop=0 speed=1.01x elapsed=0:00:54.66    frame= 1675 fps= 30 q=21.0 size=N/A time=00:00:55.83 bitrate=N/A dup=207 drop=0 speed=1.01x elapsed=0:00:55.19    [hls @ 00000244c95de8c0] Opening 'C:\Users\CBEC\Desktop\Livesitter - Assignment\backend\hls\seg_055.ts' for writing
[hls @ 00000244c95de8c0] Opening 'C:\Users\CBEC\Desktop\Livesitter - Assignment\backend\hls\stream.m3u8.tmp' for writing
frame= 1691 fps= 30 q=20.0 size=N/A time=00:00:56.36 bitrate=N/A dup=207 drop=0 speed=1.01x elapsed=0:00:55.70    frame= 1706 fps= 30 q=19.0 size=N/A time=00:00:56.86 bitrate=N/A dup=207 drop=0 speed=1.01x elapsed=0:00:56.21    [hls @ 00000244c95de8c0] Opening 'C:\Users\CBEC\Desktop\Livesitter - Assignment\backend\hls\seg_056.ts' for writing
[hls @ 00000244c95de8c0] Opening 'C:\Users\CBEC\Desktop\Livesitter - Assignment\backend\hls\stream.m3u8.tmp' for writing
frame= 1722 fps= 30 q=21.0 size=N/A time=00:00:57.40 bitrate=N/A dup=207 drop=0 speed=1.01x elapsed=0:00:56.73    frame= 1737 fps= 30 q=20.0 size=N/A time=00:00:57.90 bitrate=N/A dup=207 drop=0 speed=1.01x elapsed=0:00:57.25    [hls @ 00000244c95de8c0] Opening 'C:\Users\CBEC\Desktop\Livesitter - Assignment\backend\hls\seg_057.ts' for writing
[hls @ 00000244c95de8c0] Opening 'C:\Users\CBEC\Desktop\Livesitter - Assignment\backend\hls\stream.m3u8.tmp' for writing
frame= 1753 fps= 30 q=21.0 size=N/A time=00:00:58.43 bitrate=N/A dup=207 drop=0 speed=1.01x elapsed=0:00:57.77    frame= 1768 fps= 30 q=21.0 size=N/A time=00:00:58.93 bitrate=N/A dup=207 drop=0 speed=1.01x elapsed=0:00:58.28    [hls @ 00000244c95de8c0] Opening 'C:\Users\CBEC\Desktop\Livesitter - Assignment\backend\hls\seg_058.ts' for writing
[hls @ 00000244c95de8c0] Opening 'C:\Users\CBEC\Desktop\Livesitter - Assignment\backend\hls\stream.m3u8.tmp' for writing
frame= 1784 fps= 30 q=18.0 size=N/A time=00:00:59.46 bitrate=N/A dup=207 drop=0 speed=1.01x elapsed=0:00:58.80    frame= 1799 fps= 30 q=21.0 size=N/A time=00:00:59.96 bitrate=N/A dup=207 drop=0 speed=1.01x elapsed=0:00:59.31    [hls @ 00000244c95de8c0] Opening 'C:\Users\CBEC\Desktop\Livesitter - Assignment\backend\hls\seg_059.ts' for writing
[hls @ 00000244c95de8c0] Opening 'C:\Users\CBEC\Desktop\Livesitter - Assignment\backend\hls\stream.m3u8.tmp' for writing
frame= 1814 fps= 30 q=20.0 size=N/A time=00:01:00.46 bitrate=N/A dup=207 drop=0 speed=1.01x elapsed=0:00:59.82    frame= 1830 fps= 30 q=20.0 size=N/A time=00:01:01.00 bitrate=N/A dup=207 drop=0 speed=1.01x elapsed=0:01:00.35    [hls @ 00000244c95de8c0] Opening 'C:\Users\CBEC\Desktop\Livesitter - Assignment\backend\hls\seg_060.ts' for writing
[hls @ 00000244c95de8c0] Opening 'C:\Users\CBEC\Desktop\Livesitter - Assignment\backend\hls\stream.m3u8.tmp' for writing
frame= 1845 fps= 30 q=21.0 size=N/A time=00:01:01.50 bitrate=N/A dup=207 drop=0 speed=1.01x elapsed=0:01:00.85    [hls @ 00000244c95de8c0] Opening 'C:\Users\CBEC\Desktop\Livesitter - Assignment\backend\hls\seg_061.ts' for writing
frame= 1861 fps= 30 q=17.0 size=N/A time=00:01:02.03 bitrate=N/A dup=207 drop=0 speed=1.01x elapsed=0:01:01.37    [hls @ 00000244c95de8c0] Opening 'C:\Users\CBEC\Desktop\Livesitter - Assignment\backend\hls\stream.m3u8.tmp' for writing
frame= 1876 fps= 30 q=20.0 size=N/A time=00:01:02.53 bitrate=N/A dup=207 drop=0 speed=1.01x elapsed=0:01:01.88    [hls @ 00000244c95de8c0] Opening 'C:\Users\CBEC\Desktop\Livesitter - Assignment\backend\hls\seg_062.ts' for writing
[hls @ 00000244c95de8c0] Opening 'C:\Users\CBEC\Desktop\Livesitter - Assignment\backend\hls\stream.m3u8.tmp' for writing
frame= 1891 fps= 30 q=17.0 size=N/A time=00:01:03.03 bitrate=N/A dup=207 drop=0 speed=1.01x elapsed=0:01:02.40    frame= 1907 fps= 30 q=20.0 size=N/A time=00:01:03.56 bitrate=N/A dup=207 drop=0 speed=1.01x elapsed=0:01:02.92    [hls @ 00000244c95de8c0] Opening 'C:\Users\CBEC\Desktop\Livesitter - Assignment\backend\hls\seg_063.ts' for writing
[hls @ 00000244c95de8c0] Opening 'C:\Users\CBEC\Desktop\Livesitter - Assignment\backend\hls\stream.m3u8.tmp' for writing
frame= 1923 fps= 30 q=22.0 size=N/A time=00:01:04.10 bitrate=N/A dup=207 drop=0 speed=1.01x elapsed=0:01:03.44    frame= 1938 fps= 30 q=21.0 size=N/A time=00:01:04.60 bitrate=N/A dup=207 drop=0 speed=1.01x elapsed=0:01:03.95    [hls @ 00000244c95de8c0] Opening 'C:\Users\CBEC\Desktop\Livesitter - Assignment\backend\hls\seg_064.ts' for writing
[hls @ 00000244c95de8c0] Opening 'C:\Users\CBEC\Desktop\Livesitter - Assignment\backend\hls\stream.m3u8.tmp' for writing
frame= 1954 fps= 30 q=20.0 size=N/A time=00:01:05.13 bitrate=N/A dup=207 drop=0 speed=1.01x elapsed=0:01:04.47    frame= 1969 fps= 30 q=20.0 size=N/A time=00:01:05.63 bitrate=N/A dup=207 drop=0 speed=1.01x elapsed=0:01:04.98    [hls @ 00000244c95de8c0] Opening 'C:\Users\CBEC\Desktop\Livesitter - Assignment\backend\hls\seg_065.ts' for writing
[hls @ 00000244c95de8c0] Opening 'C:\Users\CBEC\Desktop\Livesitter - Assignment\backend\hls\stream.m3u8.tmp' for writing
frame= 1985 fps= 30 q=21.0 size=N/A time=00:01:06.16 bitrate=N/A dup=207 drop=0 speed=1.01x elapsed=0:01:05.50    frame= 2000 fps= 30 q=21.0 size=N/A time=00:01:06.66 bitrate=N/A dup=207 drop=0 speed=1.01x elapsed=0:01:06.01    [hls @ 00000244c95de8c0] Opening 'C:\Users\CBEC\Desktop\Livesitter - Assignment\backend\hls\seg_066.ts' for writing
[hls @ 00000244c95de8c0] Opening 'C:\Users\CBEC\Desktop\Livesitter - Assignment\backend\hls\stream.m3u8.tmp' for writing
frame= 2015 fps= 30 q=19.0 size=N/A time=00:01:07.16 bitrate=N/A dup=207 drop=0 speed=1.01x elapsed=0:01:06.52    frame= 2031 fps= 30 q=20.0 size=N/A time=00:01:07.70 bitrate=N/A dup=207 drop=0 speed=1.01x elapsed=0:01:07.04    [hls @ 00000244c95de8c0] Opening 'C:\Users\CBEC\Desktop\Livesitter - Assignment\backend\hls\seg_067.ts' for writing
[hls @ 00000244c95de8c0] Opening 'C:\Users\CBEC\Desktop\Livesitter - Assignment\backend\hls\stream.m3u8.tmp' for writing
frame= 2046 fps= 30 q=23.0 size=N/A time=00:01:08.20 bitrate=N/A dup=207 drop=0 speed=1.01x elapsed=0:01:07.55    frame= 2061 fps= 30 q=24.0 size=N/A time=00:01:08.70 bitrate=N/A dup=207 drop=0 speed=1.01x elapsed=0:01:08.07    [hls @ 00000244c95de8c0] Opening 'C:\Users\CBEC\Desktop\Livesitter - Assignment\backend\hls\seg_068.ts' for writing
[hls @ 00000244c95de8c0] Opening 'C:\Users\CBEC\Desktop\Livesitter - Assignment\backend\hls\stream.m3u8.tmp' for writing
frame= 2077 fps= 30 q=23.0 size=N/A time=00:01:09.23 bitrate=N/A dup=207 drop=0 speed=1.01x elapsed=0:01:08.58    frame= 2093 fps= 30 q=24.0 size=N/A time=00:01:09.76 bitrate=N/A dup=207 drop=0 speed=1.01x elapsed=0:01:09.11    [hls @ 00000244c95de8c0] Opening 'C:\Users\CBEC\Desktop\Livesitter - Assignment\backend\hls\seg_069.ts' for writing
[hls @ 00000244c95de8c0] Opening 'C:\Users\CBEC\Desktop\Livesitter - Assignment\backend\hls\stream.m3u8.tmp' for writing
frame= 2108 fps= 30 q=23.0 size=N/A time=00:01:10.26 bitrate=N/A dup=207 drop=0 speed=1.01x elapsed=0:01:09.62    frame= 2123 fps= 30 q=24.0 size=N/A time=00:01:10.76 bitrate=N/A dup=207 drop=0 speed=1.01x elapsed=0:01:10.14    [hls @ 00000244c95de8c0] Opening 'C:\Users\CBEC\Desktop\Livesitter - Assignment\backend\hls\seg_070.ts' for writing
[hls @ 00000244c95de8c0] Opening 'C:\Users\CBEC\Desktop\Livesitter - Assignment\backend\hls\stream.m3u8.tmp' for writing
frame= 2139 fps= 30 q=23.0 size=N/A time=00:01:11.30 bitrate=N/A dup=207 drop=0 speed=1.01x elapsed=0:01:10.65    frame= 2154 fps= 30 q=21.0 size=N/A time=00:01:11.80 bitrate=N/A dup=207 drop=0 speed=1.01x elapsed=0:01:11.17    [hls @ 00000244c95de8c0] Opening 'C:\Users\CBEC\Desktop\Livesitter - Assignment\backend\hls\seg_071.ts' for writing
[hls @ 00000244c95de8c0] Opening 'C:\Users\CBEC\Desktop\Livesitter - Assignment\backend\hls\stream.m3u8.tmp' for writing
frame= 2170 fps= 30 q=21.0 size=N/A time=00:01:12.33 bitrate=N/A dup=207 drop=0 speed=1.01x elapsed=0:01:11.68    frame= 2186 fps= 30 q=21.0 size=N/A time=00:01:12.86 bitrate=N/A dup=207 drop=0 speed=1.01x elapsed=0:01:12.21    [hls @ 00000244c95de8c0] Opening 'C:\Users\CBEC\Desktop\Livesitter - Assignment\backend\hls\seg_072.ts' for writing
[hls @ 00000244c95de8c0] Opening 'C:\Users\CBEC\Desktop\Livesitter - Assignment\backend\hls\stream.m3u8.tmp' for writing
frame= 2201 fps= 30 q=21.0 size=N/A time=00:01:13.36 bitrate=N/A dup=207 drop=0 speed=1.01x elapsed=0:01:12.71    frame= 2216 fps= 30 q=21.0 size=N/A time=00:01:13.86 bitrate=N/A dup=207 drop=0 speed=1.01x elapsed=0:01:13.23    [hls @ 00000244c95de8c0] Opening 'C:\Users\CBEC\Desktop\Livesitter - Assignment\backend\hls\seg_073.ts' for writing
[hls @ 00000244c95de8c0] Opening 'C:\Users\CBEC\Desktop\Livesitter - Assignment\backend\hls\stream.m3u8.tmp' for writing
frame= 2232 fps= 30 q=24.0 size=N/A time=00:01:14.40 bitrate=N/A dup=207 drop=0 speed=1.01x elapsed=0:01:13.75    frame= 2247 fps= 30 q=24.0 size=N/A time=00:01:14.90 bitrate=N/A dup=207 drop=0 speed=1.01x elapsed=0:01:14.26    [hls @ 00000244c95de8c0] Opening 'C:\Users\CBEC\Desktop\Livesitter - Assignment\backend\hls\seg_074.ts' for writing
[hls @ 00000244c95de8c0] Opening 'C:\Users\CBEC\Desktop\Livesitter - Assignment\backend\hls\stream.m3u8.tmp' for writing
frame= 2263 fps= 30 q=23.0 size=N/A time=00:01:15.43 bitrate=N/A dup=207 drop=0 speed=1.01x elapsed=0:01:14.77    frame= 2278 fps= 30 q=24.0 size=N/A time=00:01:15.93 bitrate=N/A dup=207 drop=0 speed=1.01x elapsed=0:01:15.29    [hls @ 00000244c95de8c0] Opening 'C:\Users\CBEC\Desktop\Livesitter - Assignment\backend\hls\seg_075.ts' for writing
[hls @ 00000244c95de8c0] Opening 'C:\Users\CBEC\Desktop\Livesitter - Assignment\backend\hls\stream.m3u8.tmp' for writing
frame= 2294 fps= 30 q=24.0 size=N/A time=00:01:16.46 bitrate=N/A dup=207 drop=0 speed=1.01x elapsed=0:01:15.80    frame= 2309 fps= 30 q=23.0 size=N/A time=00:01:16.96 bitrate=N/A dup=207 drop=0 speed=1.01x elapsed=0:01:16.33    [hls @ 00000244c95de8c0] Opening 'C:\Users\CBEC\Desktop\Livesitter - Assignment\backend\hls\seg_076.ts' for writing
[hls @ 00000244c95de8c0] Opening 'C:\Users\CBEC\Desktop\Livesitter - Assignment\backend\hls\stream.m3u8.tmp' for writing
frame= 2325 fps= 30 q=24.0 size=N/A time=00:01:17.50 bitrate=N/A dup=207 drop=0 speed=1.01x elapsed=0:01:16.84    frame= 2340 fps= 30 q=24.0 size=N/A time=00:01:18.00 bitrate=N/A dup=207 drop=0 speed=1.01x elapsed=0:01:17.35    [hls @ 00000244c95de8c0] Opening 'C:\Users\CBEC\Desktop\Livesitter - Assignment\backend\hls\seg_077.ts' for writing
[hls @ 00000244c95de8c0] Opening 'C:\Users\CBEC\Desktop\Livesitter - Assignment\backend\hls\stream.m3u8.tmp' for writing
frame= 2356 fps= 30 q=24.0 size=N/A time=00:01:18.53 bitrate=N/A dup=207 drop=0 speed=1.01x elapsed=0:01:17.87    [hls @ 00000244c95de8c0] Opening 'C:\Users\CBEC\Desktop\Livesitter - Assignment\backend\hls\seg_078.ts' for writing
[hls @ 00000244c95de8c0] Opening 'C:\Users\CBEC\Desktop\Livesitter - Assignment\backend\hls\stream.m3u8.tmp' for writing
frame= 2371 fps= 30 q=21.0 size=N/A time=00:01:19.03 bitrate=N/A dup=207 drop=0 speed=1.01x elapsed=0:01:18.39    frame= 2387 fps= 30 q=24.0 size=N/A time=00:01:19.56 bitrate=N/A dup=207 drop=0 speed=1.01x elapsed=0:01:18.91    [hls @ 00000244c95de8c0] Opening 'C:\Users\CBEC\Desktop\Livesitter - Assignment\backend\hls\seg_079.ts' for writing
[hls @ 00000244c95de8c0] Opening 'C:\Users\CBEC\Desktop\Livesitter - Assignment\backend\hls\stream.m3u8.tmp' for writing
frame= 2402 fps= 30 q=27.0 size=N/A time=00:01:20.06 bitrate=N/A dup=207 drop=0 speed=1.01x elapsed=0:01:19.42    frame= 2417 fps= 30 q=25.0 size=N/A time=00:01:20.56 bitrate=N/A dup=207 drop=0 speed=1.01x elapsed=0:01:19.93    [hls @ 00000244c95de8c0] Opening 'C:\Users\CBEC\Desktop\Livesitter - Assignment\backend\hls\seg_080.ts' for writing
[hls @ 00000244c95de8c0] Opening 'C:\Users\CBEC\Desktop\Livesitter - Assignment\backend\hls\stream.m3u8.tmp' for writing
frame= 2433 fps= 30 q=24.0 size=N/A time=00:01:21.10 bitrate=N/A dup=207 drop=0 speed=1.01x elapsed=0:01:20.44    frame= 2448 fps= 30 q=23.0 size=N/A time=00:01:21.60 bitrate=N/A dup=207 drop=0 speed=1.01x elapsed=0:01:20.97    [hls @ 00000244c95de8c0] Opening 'C:\Users\CBEC\Desktop\Livesitter - Assignment\backend\hls\seg_081.ts' for writing
[hls @ 00000244c95de8c0] Opening 'C:\Users\CBEC\Desktop\Livesitter - Assignment\backend\hls\stream.m3u8.tmp' for writing
frame= 2464 fps= 30 q=25.0 size=N/A time=00:01:22.13 bitrate=N/A dup=207 drop=0 speed=1.01x elapsed=0:01:21.48    frame= 2479 fps= 30 q=23.0 size=N/A time=00:01:22.63 bitrate=N/A dup=207 drop=0 speed=1.01x elapsed=0:01:21.99    [hls @ 00000244c95de8c0] Opening 'C:\Users\CBEC\Desktop\Livesitter - Assignment\backend\hls\seg_082.ts' for writing
[hls @ 00000244c95de8c0] Opening 'C:\Users\CBEC\Desktop\Livesitter - Assignment\backend\hls\stream.m3u8.tmp' for writing
frame= 2495 fps= 30 q=24.0 size=N/A time=00:01:23.16 bitrate=N/A dup=207 drop=0 speed=1.01x elapsed=0:01:22.51    frame= 2510 fps= 30 q=22.0 size=N/A time=00:01:23.66 bitrate=N/A dup=207 drop=0 speed=1.01x elapsed=0:01:23.03    [hls @ 00000244c95de8c0] Opening 'C:\Users\CBEC\Desktop\Livesitter - Assignment\backend\hls\seg_083.ts' for writing
[hls @ 00000244c95de8c0] Opening 'C:\Users\CBEC\Desktop\Livesitter - Assignment\backend\hls\stream.m3u8.tmp' for writing
frame= 2526 fps= 30 q=24.0 size=N/A time=00:01:24.20 bitrate=N/A dup=207 drop=0 speed=1.01x elapsed=0:01:23.55    frame= 2541 fps= 30 q=24.0 size=N/A time=00:01:24.70 bitrate=N/A dup=207 drop=0 speed=1.01x elapsed=0:01:24.06    [hls @ 00000244c95de8c0] Opening 'C:\Users\CBEC\Desktop\Livesitter - Assignment\backend\hls\seg_084.ts' for writing
[hls @ 00000244c95de8c0] Opening 'C:\Users\CBEC\Desktop\Livesitter - Assignment\backend\hls\stream.m3u8.tmp' for writing
frame= 2557 fps= 30 q=24.0 size=N/A time=00:01:25.23 bitrate=N/A dup=207 drop=0 speed=1.01x elapsed=0:01:24.57    frame= 2572 fps= 30 q=24.0 size=N/A time=00:01:25.73 bitrate=N/A dup=207 drop=0 speed=1.01x elapsed=0:01:25.09    [hls @ 00000244c95de8c0] Opening 'C:\Users\CBEC\Desktop\Livesitter - Assignment\backend\hls\seg_085.ts' for writing
[hls @ 00000244c95de8c0] Opening 'C:\Users\CBEC\Desktop\Livesitter - Assignment\backend\hls\stream.m3u8.tmp' for writing
frame= 2588 fps= 30 q=24.0 size=N/A time=00:01:26.26 bitrate=N/A dup=207 drop=0 speed=1.01x elapsed=0:01:25.60    frame= 2603 fps= 30 q=22.0 size=N/A time=00:01:26.76 bitrate=N/A dup=207 drop=0 speed=1.01x elapsed=0:01:26.12    [hls @ 00000244c95de8c0] Opening 'C:\Users\CBEC\Desktop\Livesitter - Assignment\backend\hls\seg_086.ts' for writing
[hls @ 00000244c95de8c0] Opening 'C:\Users\CBEC\Desktop\Livesitter - Assignment\backend\hls\stream.m3u8.tmp' for writing
frame= 2619 fps= 30 q=21.0 size=N/A time=00:01:27.30 bitrate=N/A dup=207 drop=0 speed=1.01x elapsed=0:01:26.64    frame= 2634 fps= 30 q=20.0 size=N/A time=00:01:27.80 bitrate=N/A dup=207 drop=0 speed=1.01x elapsed=0:01:27.15    [hls @ 00000244c95de8c0] Opening 'C:\Users\CBEC\Desktop\Livesitter - Assignment\backend\hls\seg_087.ts' for writing
[hls @ 00000244c95de8c0] Opening 'C:\Users\CBEC\Desktop\Livesitter - Assignment\backend\hls\stream.m3u8.tmp' for writing
frame= 2649 fps= 30 q=22.0 size=N/A time=00:01:28.30 bitrate=N/A dup=207 drop=0 speed=1.01x elapsed=0:01:27.66    frame= 2665 fps= 30 q=18.0 size=N/A time=00:01:28.83 bitrate=N/A dup=207 drop=0 speed=1.01x elapsed=0:01:28.18    [hls @ 00000244c95de8c0] Opening 'C:\Users\CBEC\Desktop\Livesitter - Assignment\backend\hls\seg_088.ts' for writing
[hls @ 00000244c95de8c0] Opening 'C:\Users\CBEC\Desktop\Livesitter - Assignment\backend\hls\stream.m3u8.tmp' for writing
frame= 2681 fps= 30 q=21.0 size=N/A time=00:01:29.36 bitrate=N/A dup=207 drop=0 speed=1.01x elapsed=0:01:28.71    frame= 2697 fps= 30 q=21.0 size=N/A time=00:01:29.90 bitrate=N/A dup=207 drop=0 speed=1.01x elapsed=0:01:29.24    [hls @ 00000244c95de8c0] Opening 'C:\Users\CBEC\Desktop\Livesitter - Assignment\backend\hls\seg_089.ts' for writing
[hls @ 00000244c95de8c0] Opening 'C:\Users\CBEC\Desktop\Livesitter - Assignment\backend\hls\stream.m3u8.tmp' for writing
frame= 2712 fps= 30 q=19.0 size=N/A time=00:01:30.40 bitrate=N/A dup=207 drop=0 speed=1.01x elapsed=0:01:29.75    frame= 2727 fps= 30 q=22.0 size=N/A time=00:01:30.90 bitrate=N/A dup=207 drop=0 speed=1.01x elapsed=0:01:30.26    [hls @ 00000244c95de8c0] Opening 'C:\Users\CBEC\Desktop\Livesitter - Assignment\backend\hls\seg_090.ts' for writing
[hls @ 00000244c95de8c0] Opening 'C:\Users\CBEC\Desktop\Livesitter - Assignment\backend\hls\stream.m3u8.tmp' for writing
frame= 2743 fps= 30 q=27.0 size=N/A time=00:01:31.43 bitrate=N/A dup=207 drop=0 speed=1.01x elapsed=0:01:30.77    frame= 2758 fps= 30 q=27.0 size=N/A time=00:01:31.93 bitrate=N/A dup=207 drop=0 speed=1.01x elapsed=0:01:31.29    [hls @ 00000244c95de8c0] Opening 'C:\Users\CBEC\Desktop\Livesitter - Assignment\backend\hls\seg_091.ts' for writing
[hls @ 00000244c95de8c0] Opening 'C:\Users\CBEC\Desktop\Livesitter - Assignment\backend\hls\stream.m3u8.tmp' for writing
frame= 2774 fps= 30 q=26.0 size=N/A time=00:01:32.46 bitrate=N/A dup=207 drop=0 speed=1.01x elapsed=0:01:31.81    frame= 2789 fps= 30 q=26.0 size=N/A time=00:01:32.96 bitrate=N/A dup=207 drop=0 speed=1.01x elapsed=0:01:32.32    [hls @ 00000244c95de8c0] Opening 'C:\Users\CBEC\Desktop\Livesitter - Assignment\backend\hls\seg_092.ts' for writing
[hls @ 00000244c95de8c0] Opening 'C:\Users\CBEC\Desktop\Livesitter - Assignment\backend\hls\stream.m3u8.tmp' for writing
frame= 2805 fps= 30 q=26.0 size=N/A time=00:01:33.50 bitrate=N/A dup=207 drop=0 speed=1.01x elapsed=0:01:32.84    frame= 2820 fps= 30 q=26.0 size=N/A time=00:01:34.00 bitrate=N/A dup=207 drop=0 speed=1.01x elapsed=0:01:33.36    [hls @ 00000244c95de8c0] Opening 'C:\Users\CBEC\Desktop\Livesitter - Assignment\backend\hls\seg_093.ts' for writing
[hls @ 00000244c95de8c0] Opening 'C:\Users\CBEC\Desktop\Livesitter - Assignment\backend\hls\stream.m3u8.tmp' for writing
frame= 2836 fps= 30 q=26.0 size=N/A time=00:01:34.53 bitrate=N/A dup=207 drop=0 speed=1.01x elapsed=0:01:33.87    [hls @ 00000244c95de8c0] Opening 'C:\Users\CBEC\Desktop\Livesitter - Assignment\backend\hls\seg_094.ts' for writing
[hls @ 00000244c95de8c0] Opening 'C:\Users\CBEC\Desktop\Livesitter - Assignment\backend\hls\stream.m3u8.tmp' for writing
frame= 2851 fps= 30 q=23.0 size=N/A time=00:01:35.03 bitrate=N/A dup=207 drop=0 speed=1.01x elapsed=0:01:34.39    frame= 2867 fps= 30 q=23.0 size=N/A time=00:01:35.56 bitrate=N/A dup=207 drop=0 speed=1.01x elapsed=0:01:34.90    [hls @ 00000244c95de8c0] Opening 'C:\Users\CBEC\Desktop\Livesitter - Assignment\backend\hls\seg_095.ts' for writing
[hls @ 00000244c95de8c0] Opening 'C:\Users\CBEC\Desktop\Livesitter - Assignment\backend\hls\stream.m3u8.tmp' for writing
frame= 2882 fps= 30 q=27.0 size=N/A time=00:01:36.06 bitrate=N/A dup=207 drop=0 speed=1.01x elapsed=0:01:35.41    frame= 2897 fps= 30 q=26.0 size=N/A time=00:01:36.56 bitrate=N/A dup=207 drop=0 speed=1.01x elapsed=0:01:35.93    [hls @ 00000244c95de8c0] Opening 'C:\Users\CBEC\Desktop\Livesitter - Assignment\backend\hls\seg_096.ts' for writing
[hls @ 00000244c95de8c0] Opening 'C:\Users\CBEC\Desktop\Livesitter - Assignment\backend\hls\stream.m3u8.tmp' for writing
frame= 2913 fps= 30 q=25.0 size=N/A time=00:01:37.10 bitrate=N/A dup=207 drop=0 speed=1.01x elapsed=0:01:36.44    frame= 2929 fps= 30 q=22.0 size=N/A time=00:01:37.63 bitrate=N/A dup=207 drop=0 speed=1.01x elapsed=0:01:36.97    [hls @ 00000244c95de8c0] Opening 'C:\Users\CBEC\Desktop\Livesitter - Assignment\backend\hls\seg_097.ts' for writing
[hls @ 00000244c95de8c0] Opening 'C:\Users\CBEC\Desktop\Livesitter - Assignment\backend\hls\stream.m3u8.tmp' for writing
frame= 2944 fps= 30 q=25.0 size=N/A time=00:01:38.13 bitrate=N/A dup=207 drop=0 speed=1.01x elapsed=0:01:37.50    frame= 2960 fps= 30 q=25.0 size=N/A time=00:01:38.66 bitrate=N/A dup=207 drop=0 speed=1.01x elapsed=0:01:38.01    [hls @ 00000244c95de8c0] Opening 'C:\Users\CBEC\Desktop\Livesitter - Assignment\backend\hls\seg_098.ts' for writing
[hls @ 00000244c95de8c0] Opening 'C:\Users\CBEC\Desktop\Livesitter - Assignment\backend\hls\stream.m3u8.tmp' for writing
frame= 2975 fps= 30 q=25.0 size=N/A time=00:01:39.16 bitrate=N/A dup=207 drop=0 speed=1.01x elapsed=0:01:38.52    frame= 2991 fps= 30 q=23.0 size=N/A time=00:01:39.70 bitrate=N/A dup=207 drop=0 speed=1.01x elapsed=0:01:39.04    [hls @ 00000244c95de8c0] Opening 'C:\Users\CBEC\Desktop\Livesitter - Assignment\backend\hls\seg_099.ts' for writing
[hls @ 00000244c95de8c0] Opening 'C:\Users\CBEC\Desktop\Livesitter - Assignment\backend\hls\stream.m3u8.tmp' for writing
frame= 3006 fps= 30 q=22.0 size=N/A time=00:01:40.20 bitrate=N/A dup=207 drop=0 speed=1.01x elapsed=0:01:39.57    frame= 3022 fps= 30 q=22.0 size=N/A time=00:01:40.73 bitrate=N/A dup=207 drop=0 speed=1.01x elapsed=0:01:40.08    [hls @ 00000244c95de8c0] Opening 'C:\Users\CBEC\Desktop\Livesitter - Assignment\backend\hls\seg_100.ts' for writing
[hls @ 00000244c95de8c0] Opening 'C:\Users\CBEC\Desktop\Livesitter - Assignment\backend\hls\stream.m3u8.tmp' for writing
frame= 3037 fps= 30 q=23.0 size=N/A time=00:01:41.23 bitrate=N/A dup=207 drop=0 speed=1.01x elapsed=0:01:40.59    frame= 3053 fps= 30 q=19.0 size=N/A time=00:01:41.76 bitrate=N/A dup=207 drop=0 speed=1.01x elapsed=0:01:41.10    [hls @ 00000244c95de8c0] Opening 'C:\Users\CBEC\Desktop\Livesitter - Assignment\backend\hls\seg_101.ts' for writing
[hls @ 00000244c95de8c0] Opening 'C:\Users\CBEC\Desktop\Livesitter - Assignment\backend\hls\stream.m3u8.tmp' for writing
frame= 3068 fps= 30 q=23.0 size=N/A time=00:01:42.26 bitrate=N/A dup=207 drop=0 speed=1.01x elapsed=0:01:41.61    frame= 3084 fps= 30 q=24.0 size=N/A time=00:01:42.80 bitrate=N/A dup=207 drop=0 speed=1.01x elapsed=0:01:42.14    [hls @ 00000244c95de8c0] Opening 'C:\Users\CBEC\Desktop\Livesitter - Assignment\backend\hls\seg_102.ts' for writing
[hls @ 00000244c95de8c0] Opening 'C:\Users\CBEC\Desktop\Livesitter - Assignment\backend\hls\stream.m3u8.tmp' for writing
frame= 3099 fps= 30 q=27.0 size=N/A time=00:01:43.30 bitrate=N/A dup=207 drop=0 speed=1.01x elapsed=0:01:42.66    frame= 3115 fps= 30 q=25.0 size=N/A time=00:01:43.83 bitrate=N/A dup=207 drop=0 speed=1.01x elapsed=0:01:43.17    [hls @ 00000244c95de8c0] Opening 'C:\Users\CBEC\Desktop\Livesitter - Assignment\backend\hls\seg_103.ts' for writing
[hls @ 00000244c95de8c0] Opening 'C:\Users\CBEC\Desktop\Livesitter - Assignment\backend\hls\stream.m3u8.tmp' for writing
frame= 3130 fps= 30 q=26.0 size=N/A time=00:01:44.33 bitrate=N/A dup=207 drop=0 speed=1.01x elapsed=0:01:43.69    frame= 3145 fps= 30 q=25.0 size=N/A time=00:01:44.83 bitrate=N/A dup=207 drop=0 speed=1.01x elapsed=0:01:44.20    [hls @ 00000244c95de8c0] Opening 'C:\Users\CBEC\Desktop\Livesitter - Assignment\backend\hls\seg_104.ts' for writing
[hls @ 00000244c95de8c0] Opening 'C:\Users\CBEC\Desktop\Livesitter - Assignment\backend\hls\stream.m3u8.tmp' for writing
frame= 3161 fps= 30 q=27.0 size=N/A time=00:01:45.36 bitrate=N/A dup=207 drop=0 speed=1.01x elapsed=0:01:44.71    frame= 3177 fps= 30 q=27.0 size=N/A time=00:01:45.90 bitrate=N/A dup=207 drop=0 speed=1.01x elapsed=0:01:45.24    [hls @ 00000244c95de8c0] Opening 'C:\Users\CBEC\Desktop\Livesitter - Assignment\backend\hls\seg_105.ts' for writing
[hls @ 00000244c95de8c0] Opening 'C:\Users\CBEC\Desktop\Livesitter - Assignment\backend\hls\stream.m3u8.tmp' for writing
frame= 3192 fps= 30 q=21.0 size=N/A time=00:01:46.40 bitrate=N/A dup=207 drop=0 speed=1.01x elapsed=0:01:45.75    frame= 3207 fps= 30 q=22.0 size=N/A time=00:01:46.90 bitrate=N/A dup=207 drop=0 speed=1.01x elapsed=0:01:46.26    [hls @ 00000244c95de8c0] Opening 'C:\Users\CBEC\Desktop\Livesitter - Assignment\backend\hls\seg_106.ts' for writing
[hls @ 00000244c95de8c0] Opening 'C:\Users\CBEC\Desktop\Livesitter - Assignment\backend\hls\stream.m3u8.tmp' for writing
frame= 3223 fps= 30 q=21.0 size=N/A time=00:01:47.43 bitrate=N/A dup=207 drop=0 speed=1.01x elapsed=0:01:46.78    frame= 3238 fps= 30 q=23.0 size=N/A time=00:01:47.93 bitrate=N/A dup=207 drop=0 speed=1.01x elapsed=0:01:47.29    [hls @ 00000244c95de8c0] Opening 'C:\Users\CBEC\Desktop\Livesitter - Assignment\backend\hls\seg_107.ts' for writing
[hls @ 00000244c95de8c0] Opening 'C:\Users\CBEC\Desktop\Livesitter - Assignment\backend\hls\stream.m3u8.tmp' for writing
frame= 3254 fps= 30 q=22.0 size=N/A time=00:01:48.46 bitrate=N/A dup=207 drop=0 speed=1.01x elapsed=0:01:47.81    frame= 3269 fps= 30 q=24.0 size=N/A time=00:01:48.96 bitrate=N/A dup=207 drop=0 speed=1.01x elapsed=0:01:48.32    [hls @ 00000244c95de8c0] Opening 'C:\Users\CBEC\Desktop\Livesitter - Assignment\backend\hls\seg_108.ts' for writing
[hls @ 00000244c95de8c0] Opening 'C:\Users\CBEC\Desktop\Livesitter - Assignment\backend\hls\stream.m3u8.tmp' for writing
frame= 3285 fps= 30 q=21.0 size=N/A time=00:01:49.50 bitrate=N/A dup=207 drop=0 speed=1.01x elapsed=0:01:48.84    frame= 3300 fps= 30 q=23.0 size=N/A time=00:01:50.00 bitrate=N/A dup=207 drop=0 speed=1.01x elapsed=0:01:49.35    [hls @ 00000244c95de8c0] Opening 'C:\Users\CBEC\Desktop\Livesitter - Assignment\backend\hls\seg_109.ts' for writing
[hls @ 00000244c95de8c0] Opening 'C:\Users\CBEC\Desktop\Livesitter - Assignment\backend\hls\stream.m3u8.tmp' for writing
frame= 3315 fps= 30 q=23.0 size=N/A time=00:01:50.50 bitrate=N/A dup=207 drop=0 speed=1.01x elapsed=0:01:49.87    [hls @ 00000244c95de8c0] Opening 'C:\Users\CBEC\Desktop\Livesitter - Assignment\backend\hls\seg_110.ts' for writing
[hls @ 00000244c95de8c0] Opening 'C:\Users\CBEC\Desktop\Livesitter - Assignment\backend\hls\stream.m3u8.tmp' for writing
frame= 3331 fps= 30 q=20.0 size=N/A time=00:01:51.03 bitrate=N/A dup=207 drop=0 speed=1.01x elapsed=0:01:50.38    frame= 3346 fps= 30 q=23.0 size=N/A time=00:01:51.53 bitrate=N/A dup=207 drop=0 speed=1.01x elapsed=0:01:50.90    [hls @ 00000244c95de8c0] Opening 'C:\Users\CBEC\Desktop\Livesitter - Assignment\backend\hls\seg_111.ts' for writing
[hls @ 00000244c95de8c0] Opening 'C:\Users\CBEC\Desktop\Livesitter - Assignment\backend\hls\stream.m3u8.tmp' for writing
frame= 3361 fps= 30 q=24.0 size=N/A time=00:01:52.06 bitrate=N/A dup=207 drop=0 speed=1.01x elapsed=0:01:51.41    frame= 3377 fps= 30 q=23.0 size=N/A time=00:01:52.56 bitrate=N/A dup=207 drop=0 speed=1.01x elapsed=0:01:51.93    [hls @ 00000244c95de8c0] Opening 'C:\Users\CBEC\Desktop\Livesitter - Assignment\backend\hls\seg_112.ts' for writing
[hls @ 00000244c95de8c0] Opening 'C:\Users\CBEC\Desktop\Livesitter - Assignment\backend\hls\stream.m3u8.tmp' for writing
frame= 3393 fps= 30 q=24.0 size=N/A time=00:01:53.10 bitrate=N/A dup=207 drop=0 speed=1.01x elapsed=0:01:52.44    frame= 3408 fps= 30 q=24.0 size=N/A time=00:01:53.60 bitrate=N/A dup=207 drop=0 speed=1.01x elapsed=0:01:52.96    [hls @ 00000244c95de8c0] Opening 'C:\Users\CBEC\Desktop\Livesitter - Assignment\backend\hls\seg_113.ts' for writing
[hls @ 00000244c95de8c0] Opening 'C:\Users\CBEC\Desktop\Livesitter - Assignment\backend\hls\stream.m3u8.tmp' for writing
frame= 3424 fps= 30 q=25.0 size=N/A time=00:01:54.13 bitrate=N/A dup=207 drop=0 speed=1.01x elapsed=0:01:53.49    frame= 3439 fps= 30 q=24.0 size=N/A time=00:01:54.63 bitrate=N/A dup=207 drop=0 speed=1.01x elapsed=0:01:53.99    [hls @ 00000244c95de8c0] Opening 'C:\Users\CBEC\Desktop\Livesitter - Assignment\backend\hls\seg_114.ts' for writing
[hls @ 00000244c95de8c0] Opening 'C:\Users\CBEC\Desktop\Livesitter - Assignment\backend\hls\stream.m3u8.tmp' for writing
frame= 3455 fps= 30 q=27.0 size=N/A time=00:01:55.16 bitrate=N/A dup=207 drop=0 speed=1.01x elapsed=0:01:54.51    frame= 3470 fps= 30 q=17.0 size=N/A time=00:01:55.66 bitrate=N/A dup=207 drop=0 speed=1.01x elapsed=0:01:55.02    [hls @ 00000244c95de8c0] Opening 'C:\Users\CBEC\Desktop\Livesitter - Assignment\backend\hls\seg_115.ts' for writing
[hls @ 00000244c95de8c0] Opening 'C:\Users\CBEC\Desktop\Livesitter - Assignment\backend\hls\stream.m3u8.tmp' for writing
frame= 3486 fps= 30 q=21.0 size=N/A time=00:01:56.20 bitrate=N/A dup=207 drop=0 speed=1.01x elapsed=0:01:55.54    frame= 3502 fps= 30 q=13.0 size=N/A time=00:01:56.73 bitrate=N/A dup=207 drop=0 speed=1.01x elapsed=0:01:56.06    [hls @ 00000244c95de8c0] Opening 'C:\Users\CBEC\Desktop\Livesitter - Assignment\backend\hls\seg_116.ts' for writing
[hls @ 00000244c95de8c0] Opening 'C:\Users\CBEC\Desktop\Livesitter - Assignment\backend\hls\stream.m3u8.tmp' for writing
frame= 3517 fps= 30 q=13.0 size=N/A time=00:01:57.23 bitrate=N/A dup=207 drop=0 speed=1.01x elapsed=0:01:56.58    frame= 3532 fps= 30 q=13.0 size=N/A time=00:01:57.73 bitrate=N/A dup=207 drop=0 speed=1.01x elapsed=0:01:57.09    [hls @ 00000244c95de8c0] Opening 'C:\Users\CBEC\Desktop\Livesitter - Assignment\backend\hls\seg_117.ts' for writing
[hls @ 00000244c95de8c0] Opening 'C:\Users\CBEC\Desktop\Livesitter - Assignment\backend\hls\stream.m3u8.tmp' for writing
frame= 3548 fps= 30 q=13.0 size=N/A time=00:01:58.26 bitrate=N/A dup=207 drop=0 speed=1.01x elapsed=0:01:57.60    frame= 3563 fps= 30 q=13.0 size=N/A time=00:01:58.76 bitrate=N/A dup=207 drop=0 speed=1.01x elapsed=0:01:58.12    [hls @ 00000244c95de8c0] Opening 'C:\Users\CBEC\Desktop\Livesitter - Assignment\backend\hls\seg_118.ts' for writing
[hls @ 00000244c95de8c0] Opening 'C:\Users\CBEC\Desktop\Livesitter - Assignment\backend\hls\stream.m3u8.tmp' for writing
frame= 3579 fps= 30 q=13.0 size=N/A time=00:01:59.30 bitrate=N/A dup=207 drop=0 speed=1.01x elapsed=0:01:58.63    frame= 3594 fps= 30 q=13.0 size=N/A time=00:01:59.80 bitrate=N/A dup=207 drop=0 speed=1.01x elapsed=0:01:59.16    [hls @ 00000244c95de8c0] Opening 'C:\Users\CBEC\Desktop\Livesitter - Assignment\backend\hls\seg_119.ts' for writing
[hls @ 00000244c95de8c0] Opening 'C:\Users\CBEC\Desktop\Livesitter - Assignment\backend\hls\stream.m3u8.tmp' for writing
frame= 3610 fps= 30 q=13.0 size=N/A time=00:02:00.33 bitrate=N/A dup=207 drop=0 speed=1.01x elapsed=0:01:59.66    frame= 3625 fps= 30 q=13.0 size=N/A time=00:02:00.83 bitrate=N/A dup=207 drop=0 speed=1.01x elapsed=0:02:00.19    [hls @ 00000244c95de8c0] Opening 'C:\Users\CBEC\Desktop\Livesitter - Assignment\backend\hls\seg_120.ts' for writing
[hls @ 00000244c95de8c0] Opening 'C:\Users\CBEC\Desktop\Livesitter - Assignment\backend\hls\stream.m3u8.tmp' for writing
frame= 3640 fps= 30 q=13.0 size=N/A time=00:02:01.33 bitrate=N/A dup=207 drop=0 speed=1.01x elapsed=0:02:00.69    frame= 3656 fps= 30 q=13.0 size=N/A time=00:02:01.86 bitrate=N/A dup=207 drop=0 speed=1.01x elapsed=0:02:01.22    [hls @ 00000244c95de8c0] Opening 'C:\Users\CBEC\Desktop\Livesitter - Assignment\backend\hls\seg_121.ts' for writing
[hls @ 00000244c95de8c0] Opening 'C:\Users\CBEC\Desktop\Livesitter - Assignment\backend\hls\stream.m3u8.tmp' for writing
frame= 3672 fps= 30 q=13.0 size=N/A time=00:02:02.40 bitrate=N/A dup=207 drop=0 speed=1.01x elapsed=0:02:01.73    frame= 3687 fps= 30 q=13.0 size=N/A time=00:02:02.90 bitrate=N/A dup=207 drop=0 speed=1.01x elapsed=0:02:02.25    [hls @ 00000244c95de8c0] Opening 'C:\Users\CBEC\Desktop\Livesitter - Assignment\backend\hls\seg_122.ts' for writing
[hls @ 00000244c95de8c0] Opening 'C:\Users\CBEC\Desktop\Livesitter - Assignment\backend\hls\stream.m3u8.tmp' for writing
frame= 3703 fps= 30 q=13.0 size=N/A time=00:02:03.43 bitrate=N/A dup=207 drop=0 speed=1.01x elapsed=0:02:02.76    frame= 3718 fps= 30 q=13.0 size=N/A time=00:02:03.93 bitrate=N/A dup=207 drop=0 speed=1.01x elapsed=0:02:03.27    [hls @ 00000244c95de8c0] Opening 'C:\Users\CBEC\Desktop\Livesitter - Assignment\backend\hls\seg_123.ts' for writing
[hls @ 00000244c95de8c0] Opening 'C:\Users\CBEC\Desktop\Livesitter - Assignment\backend\hls\stream.m3u8.tmp' for writing
frame= 3734 fps= 30 q=13.0 size=N/A time=00:02:04.46 bitrate=N/A dup=207 drop=0 speed=1.01x elapsed=0:02:03.80    frame= 3749 fps= 30 q=13.0 size=N/A time=00:02:04.96 bitrate=N/A dup=207 drop=0 speed=1.01x elapsed=0:02:04.31    [hls @ 00000244c95de8c0] Opening 'C:\Users\CBEC\Desktop\Livesitter - Assignment\backend\hls\seg_124.ts' for writing
[hls @ 00000244c95de8c0] Opening 'C:\Users\CBEC\Desktop\Livesitter - Assignment\backend\hls\stream.m3u8.tmp' for writing
frame= 3764 fps= 30 q=13.0 size=N/A time=00:02:05.46 bitrate=N/A dup=207 drop=0 speed=1.01x elapsed=0:02:04.82    frame= 3780 fps= 30 q=13.0 size=N/A time=00:02:06.00 bitrate=N/A dup=207 drop=0 speed=1.01x elapsed=0:02:05.35    [hls @ 00000244c95de8c0] Opening 'C:\Users\CBEC\Desktop\Livesitter - Assignment\backend\hls\seg_125.ts' for writing
[hls @ 00000244c95de8c0] Opening 'C:\Users\CBEC\Desktop\Livesitter - Assignment\backend\hls\stream.m3u8.tmp' for writing
frame= 3795 fps= 30 q=13.0 size=N/A time=00:02:06.50 bitrate=N/A dup=207 drop=0 speed=1.01x elapsed=0:02:05.86    [hls @ 00000244c95de8c0] Opening 'C:\Users\CBEC\Desktop\Livesitter - Assignment\backend\hls\seg_126.ts' for writing
frame= 3811 fps= 30 q=10.0 size=N/A time=00:02:07.03 bitrate=N/A dup=207 drop=0 speed=1.01x elapsed=0:02:06.37    [hls @ 00000244c95de8c0] Opening 'C:\Users\CBEC\Desktop\Livesitter - Assignment\backend\hls\stream.m3u8.tmp' for writing
frame= 3826 fps= 30 q=13.0 size=N/A time=00:02:07.53 bitrate=N/A dup=207 drop=0 speed=1.01x elapsed=0:02:06.89    [hls @ 00000244c95de8c0] Opening 'C:\Users\CBEC\Desktop\Livesitter - Assignment\backend\hls\seg_127.ts' for writing
frame= 3841 fps= 30 q=14.0 size=N/A time=00:02:08.06 bitrate=N/A dup=207 drop=0 speed=1.01x elapsed=0:02:07.40    [hls @ 00000244c95de8c0] Opening 'C:\Users\CBEC\Desktop\Livesitter - Assignment\backend\hls\stream.m3u8.tmp' for writing
frame= 3857 fps= 30 q=13.0 size=N/A time=00:02:08.56 bitrate=N/A dup=207 drop=0 speed=1.01x elapsed=0:02:07.92    [hls @ 00000244c95de8c0] Opening 'C:\Users\CBEC\Desktop\Livesitter - Assignment\backend\hls\seg_128.ts' for writing
[hls @ 00000244c95de8c0] Opening 'C:\Users\CBEC\Desktop\Livesitter - Assignment\backend\hls\stream.m3u8.tmp' for writing
frame= 3873 fps= 30 q=14.0 size=N/A time=00:02:09.10 bitrate=N/A dup=207 drop=0 speed=1.01x elapsed=0:02:08.43    frame= 3888 fps= 30 q=13.0 size=N/A time=00:02:09.60 bitrate=N/A dup=207 drop=0 speed=1.01x elapsed=0:02:08.94    [hls @ 00000244c95de8c0] Opening 'C:\Users\CBEC\Desktop\Livesitter - Assignment\backend\hls\seg_129.ts' for writing
[hls @ 00000244c95de8c0] Opening 'C:\Users\CBEC\Desktop\Livesitter - Assignment\backend\hls\stream.m3u8.tmp' for writing
frame= 3903 fps= 30 q=14.0 size=N/A time=00:02:10.10 bitrate=N/A dup=207 drop=0 speed=   1x elapsed=0:02:09.46    frame= 3919 fps= 30 q=13.0 size=N/A time=00:02:10.63 bitrate=N/A dup=207 drop=0 speed=   1x elapsed=0:02:09.99    [hls @ 00000244c95de8c0] Opening 'C:\Users\CBEC\Desktop\Livesitter - Assignment\backend\hls\seg_130.ts' for writing
[hls @ 00000244c95de8c0] Opening 'C:\Users\CBEC\Desktop\Livesitter - Assignment\backend\hls\stream.m3u8.tmp' for writing
frame= 3935 fps= 30 q=13.0 size=N/A time=00:02:11.16 bitrate=N/A dup=207 drop=0 speed=1.01x elapsed=0:02:10.50    frame= 3950 fps= 30 q=13.0 size=N/A time=00:02:11.66 bitrate=N/A dup=207 drop=0 speed=   1x elapsed=0:02:11.02    [hls @ 00000244c95de8c0] Opening 'C:\Users\CBEC\Desktop\Livesitter - Assignment\backend\hls\seg_131.ts' for writing
[hls @ 00000244c95de8c0] Opening 'C:\Users\CBEC\Desktop\Livesitter - Assignment\backend\hls\stream.m3u8.tmp' for writing
frame= 3966 fps= 30 q=13.0 size=N/A time=00:02:12.20 bitrate=N/A dup=207 drop=0 speed=1.01x elapsed=0:02:11.53    frame= 3981 fps= 30 q=13.0 size=N/A time=00:02:12.70 bitrate=N/A dup=207 drop=0 speed=   1x elapsed=0:02:12.05    [hls @ 00000244c95de8c0] Opening 'C:\Users\CBEC\Desktop\Livesitter - Assignment\backend\hls\seg_132.ts' for writing
[hls @ 00000244c95de8c0] Opening 'C:\Users\CBEC\Desktop\Livesitter - Assignment\backend\hls\stream.m3u8.tmp' for writing
frame= 3996 fps= 30 q=13.0 size=N/A time=00:02:13.20 bitrate=N/A dup=207 drop=0 speed=   1x elapsed=0:02:12.56    frame= 4012 fps= 30 q=13.0 size=N/A time=00:02:13.73 bitrate=N/A dup=207 drop=0 speed=   1x elapsed=0:02:13.07    [hls @ 00000244c95de8c0] Opening 'C:\Users\CBEC\Desktop\Livesitter - Assignment\backend\hls\seg_133.ts' for writing
[hls @ 00000244c95de8c0] Opening 'C:\Users\CBEC\Desktop\Livesitter - Assignment\backend\hls\stream.m3u8.tmp' for writing
frame= 4027 fps= 30 q=13.0 size=N/A time=00:02:14.23 bitrate=N/A dup=207 drop=0 speed=   1x elapsed=0:02:13.59    frame= 4043 fps= 30 q=13.0 size=N/A time=00:02:14.76 bitrate=N/A dup=207 drop=0 speed=   1x elapsed=0:02:14.11    [hls @ 00000244c95de8c0] Opening 'C:\Users\CBEC\Desktop\Livesitter - Assignment\backend\hls\seg_134.ts' for writing
[hls @ 00000244c95de8c0] Opening 'C:\Users\CBEC\Desktop\Livesitter - Assignment\backend\hls\stream.m3u8.tmp' for writing
frame= 4059 fps= 30 q=13.0 size=N/A time=00:02:15.30 bitrate=N/A dup=207 drop=0 speed=   1x elapsed=0:02:14.63    frame= 4074 fps= 30 q=13.0 size=N/A time=00:02:15.80 bitrate=N/A dup=207 drop=0 speed=   1x elapsed=0:02:15.15    [hls @ 00000244c95de8c0] Opening 'C:\Users\CBEC\Desktop\Livesitter - Assignment\backend\hls\seg_135.ts' for writing
[hls @ 00000244c95de8c0] Opening 'C:\Users\CBEC\Desktop\Livesitter - Assignment\backend\hls\stream.m3u8.tmp' for writing
frame= 4090 fps= 30 q=13.0 size=N/A time=00:02:16.33 bitrate=N/A dup=207 drop=0 speed=   1x elapsed=0:02:15.66    frame= 4105 fps= 30 q=13.0 size=N/A time=00:02:16.83 bitrate=N/A dup=207 drop=0 speed=   1x elapsed=0:02:16.18    [hls @ 00000244c95de8c0] Opening 'C:\Users\CBEC\Desktop\Livesitter - Assignment\backend\hls\seg_136.ts' for writing
[hls @ 00000244c95de8c0] Opening 'C:\Users\CBEC\Desktop\Livesitter - Assignment\backend\hls\stream.m3u8.tmp' for writing
frame= 4121 fps= 30 q=13.0 size=N/A time=00:02:17.36 bitrate=N/A dup=207 drop=0 speed=   1x elapsed=0:02:16.70    frame= 4136 fps= 30 q=13.0 size=N/A time=00:02:17.86 bitrate=N/A dup=207 drop=0 speed=   1x elapsed=0:02:17.22    [hls @ 00000244c95de8c0] Opening 'C:\Users\CBEC\Desktop\Livesitter - Assignment\backend\hls\seg_137.ts' for writing
[hls @ 00000244c95de8c0] Opening 'C:\Users\CBEC\Desktop\Livesitter - Assignment\backend\hls\stream.m3u8.tmp' for writing
frame= 4152 fps= 30 q=13.0 size=N/A time=00:02:18.40 bitrate=N/A dup=207 drop=0 speed=   1x elapsed=0:02:17.73    frame= 4167 fps= 30 q=13.0 size=N/A time=00:02:18.90 bitrate=N/A dup=207 drop=0 speed=   1x elapsed=0:02:18.24    [hls @ 00000244c95de8c0] Opening 'C:\Users\CBEC\Desktop\Livesitter - Assignment\backend\hls\seg_138.ts' for writing
[hls @ 00000244c95de8c0] Opening 'C:\Users\CBEC\Desktop\Livesitter - Assignment\backend\hls\stream.m3u8.tmp' for writing
frame= 4182 fps= 30 q=13.0 size=N/A time=00:02:19.40 bitrate=N/A dup=207 drop=0 speed=   1x elapsed=0:02:18.76    frame= 4198 fps= 30 q=13.0 size=N/A time=00:02:19.93 bitrate=N/A dup=207 drop=0 speed=   1x elapsed=0:02:19.27    [hls @ 00000244c95de8c0] Opening 'C:\Users\CBEC\Desktop\Livesitter - Assignment\backend\hls\seg_139.ts' for writing
[hls @ 00000244c95de8c0] Opening 'C:\Users\CBEC\Desktop\Livesitter - Assignment\backend\hls\stream.m3u8.tmp' for writing
frame= 4213 fps= 30 q=13.0 size=N/A time=00:02:20.43 bitrate=N/A dup=207 drop=0 speed=   1x elapsed=0:02:19.79    frame= 4229 fps= 30 q=13.0 size=N/A time=00:02:20.96 bitrate=N/A dup=207 drop=0 speed=   1x elapsed=0:02:20.30    [hls @ 00000244c95de8c0] Opening 'C:\Users\CBEC\Desktop\Livesitter - Assignment\backend\hls\seg_140.ts' for writing
[hls @ 00000244c95de8c0] Opening 'C:\Users\CBEC\Desktop\Livesitter - Assignment\backend\hls\stream.m3u8.tmp' for writing
frame= 4245 fps= 30 q=13.0 size=N/A time=00:02:21.50 bitrate=N/A dup=207 drop=0 speed=   1x elapsed=0:02:20.83    frame= 4260 fps= 30 q=13.0 size=N/A time=00:02:22.00 bitrate=N/A dup=207 drop=0 speed=   1x elapsed=0:02:21.34    [hls @ 00000244c95de8c0] Opening 'C:\Users\CBEC\Desktop\Livesitter - Assignment\backend\hls\seg_141.ts' for writing
[hls @ 00000244c95de8c0] Opening 'C:\Users\CBEC\Desktop\Livesitter - Assignment\backend\hls\stream.m3u8.tmp' for writing
frame= 4275 fps= 30 q=13.0 size=N/A time=00:02:22.50 bitrate=N/A dup=207 drop=0 speed=   1x elapsed=0:02:21.86    [hls @ 00000244c95de8c0] Opening 'C:\Users\CBEC\Desktop\Livesitter - Assignment\backend\hls\seg_142.ts' for writing
[hls @ 00000244c95de8c0] Opening 'C:\Users\CBEC\Desktop\Livesitter - Assignment\backend\hls\stream.m3u8.tmp' for writing
frame= 4291 fps= 30 q=10.0 size=N/A time=00:02:23.03 bitrate=N/A dup=207 drop=0 speed=   1x elapsed=0:02:22.38    frame= 4306 fps= 30 q=13.0 size=N/A time=00:02:23.53 bitrate=N/A dup=207 drop=0 speed=   1x elapsed=0:02:22.89    [hls @ 00000244c95de8c0] Opening 'C:\Users\CBEC\Desktop\Livesitter - Assignment\backend\hls\seg_143.ts' for writing
[hls @ 00000244c95de8c0] Opening 'C:\Users\CBEC\Desktop\Livesitter - Assignment\backend\hls\stream.m3u8.tmp' for writing
frame= 4322 fps= 30 q=14.0 size=N/A time=00:02:24.06 bitrate=N/A dup=207 drop=0 speed=   1x elapsed=0:02:23.41    frame= 4338 fps= 30 q=13.0 size=N/A time=00:02:24.60 bitrate=N/A dup=207 drop=0 speed=   1x elapsed=0:02:23.95    [hls @ 00000244c95de8c0] Opening 'C:\Users\CBEC\Desktop\Livesitter - Assignment\backend\hls\seg_144.ts' for writing
[hls @ 00000244c95de8c0] Opening 'C:\Users\CBEC\Desktop\Livesitter - Assignment\backend\hls\stream.m3u8.tmp' for writing
frame= 4354 fps= 30 q=13.0 size=N/A time=00:02:25.13 bitrate=N/A dup=207 drop=0 speed=   1x elapsed=0:02:24.46    frame= 4369 fps= 30 q=13.0 size=N/A time=00:02:25.63 bitrate=N/A dup=207 drop=0 speed=   1x elapsed=0:02:24.98    [hls @ 00000244c95de8c0] Opening 'C:\Users\CBEC\Desktop\Livesitter - Assignment\backend\hls\seg_145.ts' for writing
[hls @ 00000244c95de8c0] Opening 'C:\Users\CBEC\Desktop\Livesitter - Assignment\backend\hls\stream.m3u8.tmp' for writing
frame= 4384 fps= 30 q=13.0 size=N/A time=00:02:26.13 bitrate=N/A dup=207 drop=0 speed=   1x elapsed=0:02:25.49    frame= 4400 fps= 30 q=13.0 size=N/A time=00:02:26.66 bitrate=N/A dup=207 drop=0 speed=   1x elapsed=0:02:26.01    [hls @ 00000244c95de8c0] Opening 'C:\Users\CBEC\Desktop\Livesitter - Assignment\backend\hls\seg_146.ts' for writing
[hls @ 00000244c95de8c0] Opening 'C:\Users\CBEC\Desktop\Livesitter - Assignment\backend\hls\stream.m3u8.tmp' for writing
frame= 4416 fps= 30 q=13.0 size=N/A time=00:02:27.20 bitrate=N/A dup=207 drop=0 speed=   1x elapsed=0:02:26.53    frame= 4431 fps= 30 q=13.0 size=N/A time=00:02:27.70 bitrate=N/A dup=207 drop=0 speed=   1x elapsed=0:02:27.05    [hls @ 00000244c95de8c0] Opening 'C:\Users\CBEC\Desktop\Livesitter - Assignment\backend\hls\seg_147.ts' for writing
[hls @ 00000244c95de8c0] Opening 'C:\Users\CBEC\Desktop\Livesitter - Assignment\backend\hls\stream.m3u8.tmp' for writing
frame= 4446 fps= 30 q=13.0 size=N/A time=00:02:28.20 bitrate=N/A dup=207 drop=0 speed=   1x elapsed=0:02:27.56    frame= 4462 fps= 30 q=13.0 size=N/A time=00:02:28.73 bitrate=N/A dup=207 drop=0 speed=   1x elapsed=0:02:28.07    [hls @ 00000244c95de8c0] Opening 'C:\Users\CBEC\Desktop\Livesitter - Assignment\backend\hls\seg_148.ts' for writing
[hls @ 00000244c95de8c0] Opening 'C:\Users\CBEC\Desktop\Livesitter - Assignment\backend\hls\stream.m3u8.tmp' for writing
frame= 4477 fps= 30 q=13.0 size=N/A time=00:02:29.23 bitrate=N/A dup=207 drop=0 speed=   1x elapsed=0:02:28.59    frame= 4493 fps= 30 q=13.0 size=N/A time=00:02:29.76 bitrate=N/A dup=207 drop=0 speed=   1x elapsed=0:02:29.11    [hls @ 00000244c95de8c0] Opening 'C:\Users\CBEC\Desktop\Livesitter - Assignment\backend\hls\seg_149.ts' for writing
[hls @ 00000244c95de8c0] Opening 'C:\Users\CBEC\Desktop\Livesitter - Assignment\backend\hls\stream.m3u8.tmp' for writing
frame= 4508 fps= 30 q=13.0 size=N/A time=00:02:30.26 bitrate=N/A dup=207 drop=0 speed=   1x elapsed=0:02:29.62    frame= 4524 fps= 30 q=13.0 size=N/A time=00:02:30.80 bitrate=N/A dup=207 drop=0 speed=   1x elapsed=0:02:30.14    [hls @ 00000244c95de8c0] Opening 'C:\Users\CBEC\Desktop\Livesitter - Assignment\backend\hls\seg_150.ts' for writing
[hls @ 00000244c95de8c0] Opening 'C:\Users\CBEC\Desktop\Livesitter - Assignment\backend\hls\stream.m3u8.tmp' for writing
frame= 4539 fps= 30 q=13.0 size=N/A time=00:02:31.30 bitrate=N/A dup=207 drop=0 speed=   1x elapsed=0:02:30.65    frame= 4555 fps= 30 q=13.0 size=N/A time=00:02:31.83 bitrate=N/A dup=207 drop=0 speed=   1x elapsed=0:02:31.16    [hls @ 00000244c95de8c0] Opening 'C:\Users\CBEC\Desktop\Livesitter - Assignment\backend\hls\seg_151.ts' for writing
[hls @ 00000244c95de8c0] Opening 'C:\Users\CBEC\Desktop\Livesitter - Assignment\backend\hls\stream.m3u8.tmp' for writing
frame= 4570 fps= 30 q=13.0 size=N/A time=00:02:32.33 bitrate=N/A dup=207 drop=0 speed=   1x elapsed=0:02:31.68    frame= 4585 fps= 30 q=13.0 size=N/A time=00:02:32.83 bitrate=N/A dup=207 drop=0 speed=   1x elapsed=0:02:32.19    [hls @ 00000244c95de8c0] Opening 'C:\Users\CBEC\Desktop\Livesitter - Assignment\backend\hls\seg_152.ts' for writing
[hls @ 00000244c95de8c0] Opening 'C:\Users\CBEC\Desktop\Livesitter - Assignment\backend\hls\stream.m3u8.tmp' for writing
frame= 4601 fps= 30 q=13.0 size=N/A time=00:02:33.36 bitrate=N/A dup=207 drop=0 speed=   1x elapsed=0:02:32.72    frame= 4617 fps= 30 q=13.0 size=N/A time=00:02:33.90 bitrate=N/A dup=207 drop=0 speed=   1x elapsed=0:02:33.23    [hls @ 00000244c95de8c0] Opening 'C:\Users\CBEC\Desktop\Livesitter - Assignment\backend\hls\seg_153.ts' for writing
[hls @ 00000244c95de8c0] Opening 'C:\Users\CBEC\Desktop\Livesitter - Assignment\backend\hls\stream.m3u8.tmp' for writing
frame= 4632 fps= 30 q=13.0 size=N/A time=00:02:34.40 bitrate=N/A dup=207 drop=0 speed=   1x elapsed=0:02:33.75    frame= 4648 fps= 30 q=13.0 size=N/A time=00:02:34.93 bitrate=N/A dup=207 drop=0 speed=   1x elapsed=0:02:34.26    [hls @ 00000244c95de8c0] Opening 'C:\Users\CBEC\Desktop\Livesitter - Assignment\backend\hls\seg_154.ts' for writing
[hls @ 00000244c95de8c0] Opening 'C:\Users\CBEC\Desktop\Livesitter - Assignment\backend\hls\stream.m3u8.tmp' for writing
frame= 4663 fps= 30 q=13.0 size=N/A time=00:02:35.43 bitrate=N/A dup=207 drop=0 speed=   1x elapsed=0:02:34.77    frame= 4678 fps= 30 q=13.0 size=N/A time=00:02:35.93 bitrate=N/A dup=207 drop=0 speed=   1x elapsed=0:02:35.29    [hls @ 00000244c95de8c0] Opening 'C:\Users\CBEC\Desktop\Livesitter - Assignment\backend\hls\seg_155.ts' for writing
[hls @ 00000244c95de8c0] Opening 'C:\Users\CBEC\Desktop\Livesitter - Assignment\backend\hls\stream.m3u8.tmp' for writing
frame= 4694 fps= 30 q=13.0 size=N/A time=00:02:36.46 bitrate=N/A dup=207 drop=0 speed=   1x elapsed=0:02:35.81    frame= 4710 fps= 30 q=13.0 size=N/A time=00:02:37.00 bitrate=N/A dup=207 drop=0 speed=   1x elapsed=0:02:36.33    [hls @ 00000244c95de8c0] Opening 'C:\Users\CBEC\Desktop\Livesitter - Assignment\backend\hls\seg_156.ts' for writing
[hls @ 00000244c95de8c0] Opening 'C:\Users\CBEC\Desktop\Livesitter - Assignment\backend\hls\stream.m3u8.tmp' for writing
frame= 4725 fps= 30 q=13.0 size=N/A time=00:02:37.50 bitrate=N/A dup=207 drop=0 speed=   1x elapsed=0:02:36.85    [hls @ 00000244c95de8c0] Opening 'C:\Users\CBEC\Desktop\Livesitter - Assignment\backend\hls\seg_157.ts' for writing
frame= 4741 fps= 30 q=10.0 size=N/A time=00:02:38.03 bitrate=N/A dup=207 drop=0 speed=   1x elapsed=0:02:37.38    [hls @ 00000244c95de8c0] Opening 'C:\Users\CBEC\Desktop\Livesitter - Assignment\backend\hls\stream.m3u8.tmp' for writing
frame= 4756 fps= 30 q=13.0 size=N/A time=00:02:38.53 bitrate=N/A dup=207 drop=0 speed=   1x elapsed=0:02:37.89    [hls @ 00000244c95de8c0] Opening 'C:\Users\CBEC\Desktop\Livesitter - Assignment\backend\hls\seg_158.ts' for writing
frame= 4771 fps= 30 q=14.0 size=N/A time=00:02:39.06 bitrate=N/A dup=207 drop=0 speed=   1x elapsed=0:02:38.40    [hls @ 00000244c95de8c0] Opening 'C:\Users\CBEC\Desktop\Livesitter - Assignment\backend\hls\stream.m3u8.tmp' for writing
frame= 4787 fps= 30 q=13.0 size=N/A time=00:02:39.56 bitrate=N/A dup=207 drop=0 speed=   1x elapsed=0:02:38.92    [hls @ 00000244c95de8c0] Opening 'C:\Users\CBEC\Desktop\Livesitter - Assignment\backend\hls\seg_159.ts' for writing
[hls @ 00000244c95de8c0] Opening 'C:\Users\CBEC\Desktop\Livesitter - Assignment\backend\hls\stream.m3u8.tmp' for writing
frame= 4803 fps= 30 q=14.0 size=N/A time=00:02:40.10 bitrate=N/A dup=207 drop=0 speed=   1x elapsed=0:02:39.43    frame= 4818 fps= 30 q=13.0 size=N/A time=00:02:40.60 bitrate=N/A dup=207 drop=0 speed=   1x elapsed=0:02:39.94    [hls @ 00000244c95de8c0] Opening 'C:\Users\CBEC\Desktop\Livesitter - Assignment\backend\hls\seg_160.ts' for writing
[hls @ 00000244c95de8c0] Opening 'C:\Users\CBEC\Desktop\Livesitter - Assignment\backend\hls\stream.m3u8.tmp' for writing
frame= 4834 fps= 30 q=13.0 size=N/A time=00:02:41.13 bitrate=N/A dup=207 drop=0 speed=   1x elapsed=0:02:40.47    frame= 4849 fps= 30 q=13.0 size=N/A time=00:02:41.63 bitrate=N/A dup=207 drop=0 speed=   1x elapsed=0:02:40.98    [hls @ 00000244c95de8c0] Opening 'C:\Users\CBEC\Desktop\Livesitter - Assignment\backend\hls\seg_161.ts' for writing
[hls @ 00000244c95de8c0] Opening 'C:\Users\CBEC\Desktop\Livesitter - Assignment\backend\hls\stream.m3u8.tmp' for writing
frame= 4865 fps= 30 q=13.0 size=N/A time=00:02:42.16 bitrate=N/A dup=207 drop=0 speed=   1x elapsed=0:02:41.50    frame= 4880 fps= 30 q=13.0 size=N/A time=00:02:42.66 bitrate=N/A dup=207 drop=0 speed=   1x elapsed=0:02:42.01    [hls @ 00000244c95de8c0] Opening 'C:\Users\CBEC\Desktop\Livesitter - Assignment\backend\hls\seg_162.ts' for writing
[hls @ 00000244c95de8c0] Opening 'C:\Users\CBEC\Desktop\Livesitter - Assignment\backend\hls\stream.m3u8.tmp' for writing
frame= 4895 fps= 30 q=13.0 size=N/A time=00:02:43.16 bitrate=N/A dup=207 drop=0 speed=   1x elapsed=0:02:42.52    frame= 4911 fps= 30 q=13.0 size=N/A time=00:02:43.70 bitrate=N/A dup=207 drop=0 speed=   1x elapsed=0:02:43.04    [hls @ 00000244c95de8c0] Opening 'C:\Users\CBEC\Desktop\Livesitter - Assignment\backend\hls\seg_163.ts' for writing
[hls @ 00000244c95de8c0] Opening 'C:\Users\CBEC\Desktop\Livesitter - Assignment\backend\hls\stream.m3u8.tmp' for writing
frame= 4926 fps= 30 q=13.0 size=N/A time=00:02:44.20 bitrate=N/A dup=207 drop=0 speed=   1x elapsed=0:02:43.55    frame= 4942 fps= 30 q=13.0 size=N/A time=00:02:44.73 bitrate=N/A dup=207 drop=0 speed=   1x elapsed=0:02:44.08    [hls @ 00000244c95de8c0] Opening 'C:\Users\CBEC\Desktop\Livesitter - Assignment\backend\hls\seg_164.ts' for writing
[hls @ 00000244c95de8c0] Opening 'C:\Users\CBEC\Desktop\Livesitter - Assignment\backend\hls\stream.m3u8.tmp' for writing
frame= 4957 fps= 30 q=13.0 size=N/A time=00:02:45.23 bitrate=N/A dup=207 drop=0 speed=   1x elapsed=0:02:44.59    frame= 4973 fps= 30 q=13.0 size=N/A time=00:02:45.76 bitrate=N/A dup=207 drop=0 speed=   1x elapsed=0:02:45.11    [hls @ 00000244c95de8c0] Opening 'C:\Users\CBEC\Desktop\Livesitter - Assignment\backend\hls\seg_165.ts' for writing
[hls @ 00000244c95de8c0] Opening 'C:\Users\CBEC\Desktop\Livesitter - Assignment\backend\hls\stream.m3u8.tmp' for writing
frame= 4988 fps= 30 q=13.0 size=N/A time=00:02:46.26 bitrate=N/A dup=207 drop=0 speed=   1x elapsed=0:02:45.62    frame= 5004 fps= 30 q=13.0 size=N/A time=00:02:46.80 bitrate=N/A dup=207 drop=0 speed=   1x elapsed=0:02:46.13    [hls @ 00000244c95de8c0] Opening 'C:\Users\CBEC\Desktop\Livesitter - Assignment\backend\hls\seg_166.ts' for writing
[hls @ 00000244c95de8c0] Opening 'C:\Users\CBEC\Desktop\Livesitter - Assignment\backend\hls\stream.m3u8.tmp' for writing
frame= 5020 fps= 30 q=13.0 size=N/A time=00:02:47.33 bitrate=N/A dup=207 drop=0 speed=   1x elapsed=0:02:46.66    frame= 5035 fps= 30 q=13.0 size=N/A time=00:02:47.83 bitrate=N/A dup=207 drop=0 speed=   1x elapsed=0:02:47.17    [hls @ 00000244c95de8c0] Opening 'C:\Users\CBEC\Desktop\Livesitter - Assignment\backend\hls\seg_167.ts' for writing
[hls @ 00000244c95de8c0] Opening 'C:\Users\CBEC\Desktop\Livesitter - Assignment\backend\hls\stream.m3u8.tmp' for writing
frame= 5050 fps= 30 q=13.0 size=N/A time=00:02:48.33 bitrate=N/A dup=207 drop=0 speed=   1x elapsed=0:02:47.68    frame= 5066 fps= 30 q=13.0 size=N/A time=00:02:48.86 bitrate=N/A dup=207 drop=0 speed=   1x elapsed=0:02:48.19    [hls @ 00000244c95de8c0] Opening 'C:\Users\CBEC\Desktop\Livesitter - Assignment\backend\hls\seg_168.ts' for writing
[hls @ 00000244c95de8c0] Opening 'C:\Users\CBEC\Desktop\Livesitter - Assignment\backend\hls\stream.m3u8.tmp' for writing
frame= 5081 fps= 30 q=13.0 size=N/A time=00:02:49.36 bitrate=N/A dup=207 drop=0 speed=   1x elapsed=0:02:48.72    frame= 5097 fps= 30 q=13.0 size=N/A time=00:02:49.90 bitrate=N/A dup=207 drop=0 speed=   1x elapsed=0:02:49.24    [hls @ 00000244c95de8c0] Opening 'C:\Users\CBEC\Desktop\Livesitter - Assignment\backend\hls\seg_169.ts' for writing
[hls @ 00000244c95de8c0] Opening 'C:\Users\CBEC\Desktop\Livesitter - Assignment\backend\hls\stream.m3u8.tmp' for writing
frame= 5112 fps= 30 q=13.0 size=N/A time=00:02:50.40 bitrate=N/A dup=207 drop=0 speed=   1x elapsed=0:02:49.75    frame= 5128 fps= 30 q=13.0 size=N/A time=00:02:50.93 bitrate=N/A dup=207 drop=0 speed=   1x elapsed=0:02:50.27    [hls @ 00000244c95de8c0] Opening 'C:\Users\CBEC\Desktop\Livesitter - Assignment\backend\hls\seg_170.ts' for writing
[hls @ 00000244c95de8c0] Opening 'C:\Users\CBEC\Desktop\Livesitter - Assignment\backend\hls\stream.m3u8.tmp' for writing
frame= 5143 fps= 30 q=13.0 size=N/A time=00:02:51.43 bitrate=N/A dup=207 drop=0 speed=   1x elapsed=0:02:50.78    frame= 5158 fps= 30 q=13.0 size=N/A time=00:02:51.93 bitrate=N/A dup=207 drop=0 speed=   1x elapsed=0:02:51.29    [hls @ 00000244c95de8c0] Opening 'C:\Users\CBEC\Desktop\Livesitter - Assignment\backend\hls\seg_171.ts' for writing
[hls @ 00000244c95de8c0] Opening 'C:\Users\CBEC\Desktop\Livesitter - Assignment\backend\hls\stream.m3u8.tmp' for writing
frame= 5174 fps= 30 q=13.0 size=N/A time=00:02:52.46 bitrate=N/A dup=207 drop=0 speed=   1x elapsed=0:02:51.81    frame= 5189 fps= 30 q=13.0 size=N/A time=00:02:52.96 bitrate=N/A dup=207 drop=0 speed=   1x elapsed=0:02:52.32    [hls @ 00000244c95de8c0] Opening 'C:\Users\CBEC\Desktop\Livesitter - Assignment\backend\hls\seg_172.ts' for writing
[hls @ 00000244c95de8c0] Opening 'C:\Users\CBEC\Desktop\Livesitter - Assignment\backend\hls\stream.m3u8.tmp' for writing
frame= 5205 fps= 30 q=13.0 size=N/A time=00:02:53.50 bitrate=N/A dup=207 drop=0 speed=   1x elapsed=0:02:52.83    [hls @ 00000244c95de8c0] Opening 'C:\Users\CBEC\Desktop\Livesitter - Assignment\backend\hls\seg_173.ts' for writing
frame= 5221 fps= 30 q=10.0 size=N/A time=00:02:54.03 bitrate=N/A dup=207 drop=0 speed=   1x elapsed=0:02:53.36    [hls @ 00000244c95de8c0] Opening 'C:\Users\CBEC\Desktop\Livesitter - Assignment\backend\hls\stream.m3u8.tmp' for writing
frame= 5236 fps= 30 q=13.0 size=N/A time=00:02:54.53 bitrate=N/A dup=207 drop=0 speed=   1x elapsed=0:02:53.88    [hls @ 00000244c95de8c0] Opening 'C:\Users\CBEC\Desktop\Livesitter - Assignment\backend\hls\seg_174.ts' for writing
frame= 5251 fps= 30 q=10.0 size=N/A time=00:02:55.03 bitrate=N/A dup=207 drop=0 speed=   1x elapsed=0:02:54.39    [hls @ 00000244c95de8c0] Opening 'C:\Users\CBEC\Desktop\Livesitter - Assignment\backend\hls\stream.m3u8.tmp' for writing
frame= 5267 fps= 30 q=13.0 size=N/A time=00:02:55.56 bitrate=N/A dup=207 drop=0 speed=   1x elapsed=0:02:54.90    [hls @ 00000244c95de8c0] Opening 'C:\Users\CBEC\Desktop\Livesitter - Assignment\backend\hls\seg_175.ts' for writing
[hls @ 00000244c95de8c0] Opening 'C:\Users\CBEC\Desktop\Livesitter - Assignment\backend\hls\stream.m3u8.tmp' for writing
frame= 5282 fps= 30 q=14.0 size=N/A time=00:02:56.06 bitrate=N/A dup=207 drop=0 speed=   1x elapsed=0:02:55.42    frame= 5298 fps= 30 q=13.0 size=N/A time=00:02:56.60 bitrate=N/A dup=207 drop=0 speed=   1x elapsed=0:02:55.93    [hls @ 00000244c95de8c0] Opening 'C:\Users\CBEC\Desktop\Livesitter - Assignment\backend\hls\seg_176.ts' for writing
[hls @ 00000244c95de8c0] Opening 'C:\Users\CBEC\Desktop\Livesitter - Assignment\backend\hls\stream.m3u8.tmp' for writing
frame= 5313 fps= 30 q=14.0 size=N/A time=00:02:57.10 bitrate=N/A dup=207 drop=0 speed=   1x elapsed=0:02:56.45    frame= 5329 fps= 30 q=13.0 size=N/A time=00:02:57.63 bitrate=N/A dup=207 drop=0 speed=   1x elapsed=0:02:56.97    [hls @ 00000244c95de8c0] Opening 'C:\Users\CBEC\Desktop\Livesitter - Assignment\backend\hls\seg_177.ts' for writing
[hls @ 00000244c95de8c0] Opening 'C:\Users\CBEC\Desktop\Livesitter - Assignment\backend\hls\stream.m3u8.tmp' for writing


[q] command received. Exiting.

[hls @ 00000244c95de8c0] Opening 'C:\Users\CBEC\Desktop\Livesitter - Assignment\backend\hls\seg_178.ts' for writing
[hls @ 00000244c95de8c0] Opening 'C:\Users\CBEC\Desktop\Livesitter - Assignment\backend\hls\stream.m3u8.tmp' for writing
[out#0/hls @ 00000244c952b700] video:75808KiB audio:1852KiB subtitle:0KiB other streams:0KiB global headers:0KiB muxing overhead: unknown
frame= 5346 fps= 30 q=13.0 Lsize=N/A time=00:02:58.20 bitrate=N/A dup=207 drop=0 speed=   1x elapsed=0:02:57.54    
[libx264 @ 00000244c9b200c0] frame I:179   Avg QP:15.80  size: 73765
[libx264 @ 00000244c9b200c0] frame P:5167  Avg QP:18.89  size: 12468
[libx264 @ 00000244c9b200c0] mb I  I16..4: 100.0%  0.0%  0.0%
[libx264 @ 00000244c9b200c0] mb P  I16..4:  4.8%  0.0%  0.0%  P16..4: 30.1%  0.0%  0.0%  0.0%  0.0%    skip:65.1%
[libx264 @ 00000244c9b200c0] coded y,uvDC,uvAC intra: 28.0% 44.5% 19.1% inter: 13.9% 12.2% 0.9%
[libx264 @ 00000244c9b200c0] i16 v,h,dc,p: 45% 23% 20% 13%
[libx264 @ 00000244c9b200c0] i8c dc,h,v,p: 56% 18% 16%  9%
[libx264 @ 00000244c9b200c0] kb/s:3484.94
[aac @ 00000244c9573240] Qavg: 23116.244
